<svg width="48" height="48" viewBox="0 0 48 48" fill="none" xmlns="http://www.w3.org/2000/svg">
<path fill-rule="evenodd" clip-rule="evenodd" d="M20.0452 13.2839V11.4024H14.9874V21.5199H5.07473V11.4024H0V36.2439H5.07473V25.5123H14.9874V36.2439H20.0452V34.3336L19.923 34.3539L19.9848 33.2405L18.8942 33.3037L19.0697 32.203L17.9787 32.1494L18.2659 31.0734L17.1863 30.9037L17.5821 29.8643L16.5258 29.5803L17.0259 28.5889L16.0045 28.1937L16.6033 27.261L15.6279 26.759L16.319 25.8954L15.7357 25.5123L15.4003 25.292L16.176 24.5069L15.3242 23.8088L16.176 23.1107L15.4003 22.3255L16.319 21.7222L16.1571 21.5199L15.6279 20.8585L16.6033 20.3565L16.0045 19.4239L17.0259 19.0287L16.5258 18.0372L17.5821 17.7532L17.1863 16.7138L18.2659 16.5441L17.9787 15.4682L19.0697 15.4146L18.8942 14.3139L19.9848 14.377L19.923 13.2636L20.0452 13.2839Z" fill="#FFA800"/>
<path fill-rule="evenodd" clip-rule="evenodd" d="M26.5208 23.8849C26.5208 22.5996 27.5627 21.5577 28.848 21.5577H45.6727C46.9579 21.5577 47.9999 22.5996 47.9999 23.8849C47.9999 25.1702 46.9579 26.2121 45.6726 26.2121H28.848C27.5627 26.2121 26.5208 25.1702 26.5208 23.8849ZM46.8568 23.8849C46.8568 24.5299 46.3383 25.0528 45.6988 25.0528C45.0593 25.0528 44.5409 24.5299 44.5409 23.8849C44.5409 23.2399 45.0593 22.717 45.6988 22.717C46.3383 22.717 46.8568 23.2399 46.8568 23.8849ZM29.5104 25.0528C30.15 25.0528 30.6684 24.5299 30.6684 23.8849C30.6684 23.2399 30.15 22.717 29.5104 22.717C28.8709 22.717 28.3525 23.2399 28.3525 23.8849C28.3525 24.5299 28.8709 25.0528 29.5104 25.0528Z" fill="#FFA800"/>
<path fill-rule="evenodd" clip-rule="evenodd" d="M29.677 11L30.3025 11.7859L31.006 11.0702L31.5465 11.9178L32.3203 11.2802L32.7701 12.1801L33.6057 11.6276L33.9598 12.57L34.8481 12.1086L35.1026 13.0832L36.0338 12.718L36.1859 13.714L37.1499 13.449L37.1979 14.4556L38.1841 14.2937L38.1394 15.0887L36.7595 16.2063C34.9078 14.4543 32.4171 13.3813 29.6779 13.3813C28.7567 13.3813 27.8636 13.5026 27.0135 13.7303L28.1252 16.632C28.8674 18.5691 30.7552 19.6572 32.6585 19.5276L30.7977 21.0347H29.6728C28.1236 21.0347 26.8677 22.2906 26.8677 23.8398C26.8677 25.389 28.1236 26.6449 29.6728 26.6449H34.5435C34.7407 27.082 35.0164 27.4949 35.3734 27.8636L37.589 30.1517C37.6513 30.2161 37.7063 30.2846 37.7542 30.3563C38.6152 29.275 39.2671 28.017 39.648 26.6449H41.8066L41.2206 26.9429L41.7684 27.7857L40.8341 28.1428L41.2915 29.0388L40.3253 29.2954L40.6874 30.2347L39.6998 30.3881L39.9626 31.3604L38.9646 31.4088L39.1251 32.4035L38.1275 32.3464L38.1841 33.3526L37.1979 33.1907L37.1499 34.1973L36.1859 33.9323L36.0338 34.9283L35.1026 34.5631L34.8481 35.5377L33.9598 35.0763L33.6057 36.0187L32.7701 35.4662L32.3203 36.3661L31.5465 35.7285L31.006 36.5761L30.3025 35.8604L29.677 36.6463L29.0516 35.8604L28.3481 36.5761L27.8075 35.7285L27.0337 36.3661L26.5839 35.4662L25.7483 36.0187L25.3942 35.0763L24.5059 35.5377L24.2515 34.5631L23.3202 34.9283L23.1681 33.9323L22.2041 34.1973L22.1561 33.1907L21.1699 33.3526L21.2265 32.3464L20.2289 32.4035L20.3895 31.4088L19.3915 31.3604L19.6542 30.3881L18.6667 30.2347L19.0288 29.2954L18.0625 29.0388L18.52 28.1428L17.5856 27.7857L18.1334 26.9429L17.2412 26.4892L17.8733 25.7088L17.033 25.1635L17.7426 24.454L16.9634 23.8232L17.7426 23.1923L17.033 22.4828L17.8733 21.9375L17.2412 21.1571L18.1334 20.7034L17.5856 19.8606L18.52 19.5035L18.0625 18.6075L19.0288 18.3509L18.6667 17.4116L19.6542 17.2582L19.3915 16.2859L20.3895 16.2375L20.2289 15.2428L21.2265 15.2999L21.1699 14.2937L22.1561 14.4556L22.2041 13.449L23.1681 13.714L23.3202 12.718L24.2515 13.0832L24.5059 12.1086L25.3642 12.5544C25.3769 12.5522 25.3897 12.5501 25.4024 12.5482L25.7483 11.6276L26.5839 12.1801L27.0337 11.2802L27.8075 11.9178L28.3481 11.0702L29.0516 11.7859L29.677 11ZM24.4557 14.8051C21.7228 16.4186 19.789 19.2597 19.3981 22.5781L21.8963 22.5781C24.6427 22.5781 26.514 19.7735 25.4619 17.2339L24.4557 14.8051ZM19.4081 25.1506C19.8078 28.3278 21.6231 31.0596 24.1962 32.6827C24.1819 32.4328 24.2294 32.1764 24.3453 31.9368L25.1468 30.279C26.2952 27.9036 24.5796 25.1506 21.9509 25.1506H19.4081ZM26.6031 33.7966C27.5745 34.101 28.6072 34.2649 29.6779 34.2649C31.9136 34.2649 33.9838 33.5501 35.6761 32.3347C35.5982 32.2764 35.5252 32.2093 35.4583 32.1336L33.6469 30.0821C31.982 28.1966 28.915 28.7235 27.9554 31.0599L27.0922 33.1614C26.984 33.4247 26.8121 33.6393 26.6031 33.7966ZM27.1808 16.1571C27.1808 16.49 26.9132 16.7599 26.5831 16.7599C26.253 16.7599 25.9854 16.49 25.9854 16.1571C25.9854 15.8241 26.253 15.5542 26.5831 15.5542C26.9132 15.5542 27.1808 15.8241 27.1808 16.1571ZM22.3004 24.4259C22.6306 24.4259 22.8982 24.156 22.8982 23.8231C22.8982 23.4901 22.6306 23.2202 22.3004 23.2202C21.9703 23.2202 21.7027 23.4901 21.7027 23.8231C21.7027 24.156 21.9703 24.4259 22.3004 24.4259ZM35.7537 29.7006C35.7537 30.0335 35.4861 30.3034 35.156 30.3034C34.8259 30.3034 34.5583 30.0335 34.5583 29.7006C34.5583 29.3676 34.8259 29.0977 35.156 29.0977C35.4861 29.0977 35.7537 29.3676 35.7537 29.7006ZM27.0262 30.9064C27.0262 31.2393 26.7586 31.5092 26.4284 31.5092C26.0983 31.5092 25.8307 31.2393 25.8307 30.9064C25.8307 30.5734 26.0983 30.3035 26.4284 30.3035C26.7586 30.3035 27.0262 30.5734 27.0262 30.9064Z" fill="#FFA800"/>
</svg>
