<svg width="18" height="16" viewBox="0 0 18 16" fill="none" xmlns="http://www.w3.org/2000/svg">
<path d="M9.84393 8.71997V11.5325C9.84393 11.7562 9.75504 11.9709 9.5968 12.1291C9.43857 12.2873 9.22396 12.3762 9.00018 12.3762C8.77641 12.3762 8.56179 12.2873 8.40356 12.1291C8.24533 11.9709 8.15643 11.7562 8.15643 11.5325V8.71997C8.15643 8.49619 8.24533 8.28158 8.40356 8.12334C8.56179 7.96511 8.77641 7.87622 9.00018 7.87622C9.22396 7.87622 9.43857 7.96511 9.5968 8.12334C9.75504 8.28158 9.84393 8.49619 9.84393 8.71997ZM11.8169 8.63629L11.5357 11.4488C11.5135 11.6714 11.5807 11.8938 11.7224 12.0669C11.8641 12.2401 12.0689 12.3498 12.2915 12.372C12.3196 12.372 12.3485 12.3762 12.3759 12.3762C12.585 12.376 12.7867 12.2982 12.9417 12.1577C13.0967 12.0173 13.194 11.8243 13.2147 11.6161L13.496 8.80364C13.5154 8.58245 13.4468 8.36252 13.3051 8.19156C13.1634 8.02059 12.9601 7.91236 12.7391 7.89034C12.5182 7.86832 12.2974 7.93428 12.1248 8.07392C11.9522 8.21356 11.8415 8.41562 11.8169 8.63629ZM6.18346 8.63629C6.15882 8.41562 6.04819 8.21356 5.87555 8.07392C5.70292 7.93428 5.48219 7.86832 5.26125 7.89034C5.0403 7.91236 4.83694 8.02059 4.69526 8.19156C4.55358 8.36252 4.48501 8.58245 4.5044 8.80364L4.78565 11.6161C4.8064 11.8244 4.90381 12.0175 5.05895 12.158C5.2141 12.2984 5.4159 12.3762 5.62518 12.3762C5.6526 12.3762 5.68143 12.3762 5.70956 12.372C5.93221 12.3498 6.13692 12.2401 6.27867 12.0669C6.42042 11.8938 6.48759 11.6714 6.46542 11.4488L6.18346 8.63629ZM17.1522 6.01926L16.0926 13.9646C16.0475 14.3032 15.881 14.614 15.624 14.8391C15.3671 15.0642 15.0371 15.1885 14.6955 15.1887H3.30487C2.96437 15.1877 2.63572 15.0636 2.37958 14.8393C2.12344 14.6149 1.9571 14.3055 1.91128 13.9681L0.851667 6.02278C0.83519 5.90335 0.844499 5.78178 0.878965 5.66625C0.913432 5.55072 0.972255 5.44392 1.05147 5.35304C1.13069 5.26216 1.22847 5.18932 1.33821 5.13941C1.44796 5.0895 1.56712 5.06369 1.68768 5.06372H4.67948L8.36737 0.851997C8.44656 0.761512 8.54418 0.688999 8.65369 0.639317C8.76319 0.589636 8.88205 0.563934 9.00229 0.563934C9.12254 0.563934 9.24139 0.589636 9.3509 0.639317C9.4604 0.688999 9.55802 0.761512 9.63721 0.851997L13.3209 5.06372H16.3127C16.4329 5.06376 16.5517 5.08949 16.6612 5.13919C16.7707 5.18889 16.8682 5.26141 16.9474 5.35189C17.0266 5.44236 17.0855 5.54872 17.1202 5.66381C17.1549 5.77891 17.1646 5.9001 17.1487 6.01926H17.1522ZM6.92245 5.06372H11.0779L9.00018 2.68856L6.92245 5.06372ZM15.3487 6.75122H2.65167L3.55167 13.5012H14.4501L15.3487 6.75122Z" fill="#1C1403"/>
</svg>
