<svg width="13" height="13" viewBox="0 0 13 13" fill="none" xmlns="http://www.w3.org/2000/svg">
<path d="M7.60656 8.2398C6.68693 8.89364 5.55522 9.17812 4.43573 9.03687C3.31623 8.89563 2.29065 8.33896 1.56225 7.47719C0.833842 6.61542 0.455772 5.51145 0.502964 4.38406C0.550157 3.25668 1.01917 2.18817 1.81705 1.39029C2.61492 0.59241 3.68344 0.123399 4.81082 0.0762063C5.9382 0.0290139 7.04218 0.407085 7.90394 1.13549C8.76571 1.8639 9.32238 2.88947 9.46363 4.00897C9.60488 5.12846 9.32039 6.26017 8.66656 7.1798L12.2796 10.7918C12.3532 10.8605 12.4123 10.9433 12.4533 11.0353C12.4943 11.1273 12.5164 11.2266 12.5181 11.3273C12.5199 11.428 12.5014 11.528 12.4637 11.6214C12.426 11.7148 12.3698 11.7996 12.2986 11.8708C12.2274 11.9421 12.1425 11.9982 12.0492 12.0359C11.9558 12.0736 11.8557 12.0922 11.755 12.0904C11.6543 12.0886 11.555 12.0666 11.463 12.0256C11.371 11.9846 11.2882 11.9255 11.2196 11.8518L7.60656 8.2398ZM7.99956 4.5718C7.99956 3.77615 7.68349 3.01309 7.12088 2.45048C6.55827 1.88787 5.79521 1.5718 4.99956 1.5718C4.20391 1.5718 3.44085 1.88787 2.87824 2.45048C2.31563 3.01309 1.99956 3.77615 1.99956 4.5718C1.99956 5.36745 2.31563 6.13051 2.87824 6.69312C3.44085 7.25573 4.20391 7.5718 4.99956 7.5718C5.79521 7.5718 6.55827 7.25573 7.12088 6.69312C7.68349 6.13051 7.99956 5.36745 7.99956 4.5718Z" fill="#1C1403"/>
</svg>
