<svg width="21" height="15" viewBox="0 0 21 15" fill="none" xmlns="http://www.w3.org/2000/svg">
<path fill-rule="evenodd" clip-rule="evenodd" d="M11.531 13.8274C10.794 14.4482 9.69323 14.3539 9.07244 13.6169C8.70279 13.178 8.58666 12.6102 8.70881 12.0915C8.75923 11.8774 8.73635 11.6436 8.59465 11.4754C8.45294 11.3071 8.2264 11.2448 8.00683 11.2581C7.47495 11.2903 6.93513 11.0794 6.56548 10.6405C6.19264 10.1979 6.07771 9.62401 6.20506 9.10173C6.27756 8.80444 6.26461 8.47355 6.06747 8.23951C5.87029 8.0054 5.54631 7.93643 5.24095 7.9574C4.70452 7.99424 4.1584 7.78345 3.78547 7.3407C3.41584 6.90185 3.2997 6.33406 3.42182 5.81541C3.47224 5.60126 3.44936 5.36738 3.30763 5.19911C3.16589 5.03082 2.93928 4.96853 2.71966 4.98183C2.18778 5.01404 1.64795 4.80308 1.2783 4.36421C0.657508 3.62718 0.751741 2.52645 1.48877 1.90566C2.2258 1.28487 3.32653 1.37911 3.94732 2.11614C4.31705 2.5551 4.43315 3.12308 4.31088 3.64184C4.26042 3.85589 4.28328 4.0897 4.42496 4.25791C4.56664 4.42612 4.79318 4.48838 5.01271 4.47503C5.54473 4.44268 6.08475 4.65363 6.4545 5.09262C6.82784 5.53587 6.94257 6.11065 6.81441 6.63348C6.74165 6.93032 6.75446 7.26085 6.95135 7.49461C7.14829 7.72842 7.47194 7.79721 7.7769 7.77589C8.31401 7.73835 8.86109 7.9491 9.23451 8.39244C9.60429 8.83147 9.72037 9.39954 9.59801 9.91836C9.54754 10.1323 9.57039 10.3661 9.71202 10.5342C9.85365 10.7024 10.0801 10.7646 10.2995 10.7512C10.8316 10.7188 11.3717 10.9298 11.7415 11.3688C12.3623 12.1059 12.268 13.2066 11.531 13.8274ZM9.47907 13.2775C9.91139 13.7908 10.678 13.8564 11.1912 13.4241C11.7045 12.9918 11.7701 12.2252 11.3378 11.7119C10.9055 11.1987 10.1389 11.133 9.62564 11.5654C9.11237 11.9977 9.04674 12.7642 9.47907 13.2775ZM10.0374 12.8072C10.2099 13.012 10.5157 13.0382 10.7205 12.8657C10.9252 12.6932 10.9514 12.3874 10.7789 12.1826C10.6065 11.9779 10.3006 11.9517 10.0959 12.1242C9.8911 12.2966 9.86491 12.6024 10.0374 12.8072ZM8.72322 10.4945C8.20994 10.9268 7.44338 10.8612 7.01105 10.3479C6.57873 9.83465 6.64435 9.06808 7.15763 8.63576C7.6709 8.20343 8.43747 8.26906 8.86979 8.78234C9.30212 9.29561 9.23649 10.0622 8.72322 10.4945ZM8.25244 9.9361C8.04767 10.1086 7.74185 10.0824 7.56937 9.87762C7.3969 9.67285 7.42308 9.36703 7.62785 9.19456C7.83262 9.02208 8.13844 9.04826 8.31091 9.25303C8.48339 9.4578 8.45721 9.76362 8.25244 9.9361ZM4.19224 7.00113C4.62456 7.51441 5.39113 7.58003 5.9044 7.14771C6.41768 6.71538 6.48331 5.94882 6.05098 5.43554C5.61865 4.92226 4.85209 4.85664 4.33882 5.28896C3.82554 5.72129 3.75991 6.48785 4.19224 7.00113ZM4.75056 6.53082C4.92304 6.7356 5.22885 6.76178 5.43362 6.5893C5.6384 6.41683 5.66458 6.11101 5.4921 5.90624C5.31963 5.70147 5.01381 5.67528 4.80904 5.84776C4.60427 6.02024 4.57808 6.32605 4.75056 6.53082ZM3.43663 4.21802C2.92335 4.65034 2.15679 4.58472 1.72446 4.07144C1.29214 3.55816 1.35776 2.7916 1.87104 2.35928C2.38432 1.92695 3.15088 1.99258 3.58321 2.50585C4.01553 3.01913 3.94991 3.78569 3.43663 4.21802ZM2.96585 3.65961C2.76108 3.83209 2.45526 3.80591 2.28279 3.60114C2.11031 3.39637 2.13649 3.09055 2.34126 2.91807C2.54603 2.7456 2.85185 2.77178 3.02433 2.97655C3.1968 3.18132 3.17062 3.48714 2.96585 3.65961Z" fill="#1C1403"/>
<path fill-rule="evenodd" clip-rule="evenodd" d="M9.39849 13.8276C10.1355 14.4484 11.2363 14.3542 11.857 13.6171C12.2267 13.1783 12.3428 12.6105 12.2207 12.0918C12.1703 11.8777 12.1931 11.6438 12.3348 11.4756C12.4765 11.3074 12.7031 11.2451 12.9227 11.2584C13.4545 11.2906 13.9944 11.0796 14.364 10.6408C14.7369 10.198 14.8518 9.62405 14.7244 9.10171C14.6518 8.80447 14.6648 8.47361 14.8619 8.23959C15.0591 8.00547 15.3831 7.93654 15.6885 7.95761C16.2251 7.99463 16.7714 7.78385 17.1445 7.34094C17.5141 6.9021 17.6303 6.33431 17.5081 5.81566C17.4577 5.60151 17.4806 5.36763 17.6223 5.19935C17.7641 5.03107 17.9907 4.96877 18.2103 4.98207C18.7422 5.01429 19.282 4.80334 19.6517 4.36446C20.2725 3.62743 20.1782 2.5267 19.4412 1.90591C18.7042 1.28512 17.6034 1.37936 16.9827 2.11639C16.6129 2.55535 16.4968 3.12331 16.6191 3.64207C16.6696 3.85613 16.6467 4.08994 16.505 4.25815C16.3633 4.42637 16.1368 4.48863 15.9172 4.47528C15.3852 4.44293 14.8452 4.65388 14.4755 5.09287C14.1023 5.53588 13.9875 6.11029 14.1154 6.6329C14.188 6.92993 14.1751 7.26062 13.9782 7.4945C13.7811 7.72848 13.4572 7.79732 13.152 7.77609C12.6151 7.73874 12.0683 7.9495 11.695 8.39268C11.3252 8.83171 11.2091 9.39978 11.3315 9.9186C11.3819 10.1326 11.3591 10.3663 11.2175 10.5345C11.0758 10.7026 10.8494 10.7648 10.6299 10.7515C10.0979 10.7191 9.5578 10.93 9.18802 11.3691C8.56723 12.1061 8.66146 13.2068 9.39849 13.8276ZM11.4504 13.2778C11.0181 13.791 10.2515 13.8567 9.73825 13.4243C9.22498 12.992 9.15935 12.2254 9.59168 11.7122C10.024 11.1989 10.7906 11.1333 11.3038 11.5656C11.8171 11.9979 11.8827 12.7645 11.4504 13.2778ZM10.8921 12.8075C10.7196 13.0122 10.4138 13.0384 10.209 12.8659C10.0043 12.6935 9.97808 12.3876 10.1506 12.1829C10.323 11.9781 10.6288 11.9519 10.8336 12.1244C11.0384 12.2969 11.0646 12.6027 10.8921 12.8075ZM12.2063 10.4947C12.7196 10.9271 13.4861 10.8614 13.9185 10.3482C14.3508 9.83489 14.2852 9.06833 13.7719 8.636C13.2586 8.20368 12.492 8.2693 12.0597 8.78258C11.6274 9.29585 11.693 10.0624 12.2063 10.4947ZM12.6771 9.93634C12.8818 10.1088 13.1877 10.0826 13.3601 9.87786C13.5326 9.67309 13.5064 9.36727 13.3017 9.1948C13.0969 9.02232 12.7911 9.0485 12.6186 9.25327C12.4461 9.45804 12.4723 9.76386 12.6771 9.93634ZM16.7377 7.00137C16.3054 7.51465 15.5388 7.58027 15.0256 7.14795C14.5123 6.71562 14.4467 5.94906 14.879 5.43578C15.3113 4.9225 16.0779 4.85688 16.5912 5.2892C17.1044 5.72153 17.1701 6.48809 16.7377 7.00137ZM16.1794 6.53107C16.0069 6.73584 15.7011 6.76202 15.4963 6.58954C15.2916 6.41707 15.2654 6.11125 15.4379 5.90648C15.6103 5.70171 15.9162 5.67553 16.1209 5.848C16.3257 6.02048 16.3519 6.32629 16.1794 6.53107ZM17.4933 4.21826C18.0066 4.65058 18.7732 4.58496 19.2055 4.07168C19.6378 3.5584 19.5722 2.79184 19.0589 2.35952C18.5457 1.92719 17.7791 1.99282 17.3468 2.50609C16.9144 3.01937 16.9801 3.78593 17.4933 4.21826ZM17.9641 3.65985C18.1689 3.83233 18.4747 3.80615 18.6472 3.60138C18.8197 3.39661 18.7935 3.09079 18.5887 2.91831C18.3839 2.74584 18.0781 2.77202 17.9056 2.97679C17.7332 3.18156 17.7594 3.48738 17.9641 3.65985Z" fill="#1C1403"/>
</svg>
