<svg width="22" height="31" viewBox="0 0 22 31" fill="none" xmlns="http://www.w3.org/2000/svg">
<path fill-rule="evenodd" clip-rule="evenodd" d="M15.9797 12.767C15.7339 12.5599 15.6428 12.2289 15.6621 11.9081C15.7089 11.1316 15.4007 10.3436 14.76 9.80393C14.1135 9.25937 13.2754 9.09153 12.5126 9.27756C12.0783 9.38347 11.595 9.36457 11.2531 9.07663C10.9111 8.78857 10.8104 8.31523 10.8411 7.86914C10.895 7.08556 10.5872 6.28779 9.94044 5.74304C9.2992 5.20293 8.46944 5.03341 7.71166 5.21219C7.39913 5.28593 7.05774 5.25258 6.81214 5.04571C6.56657 4.83887 6.47566 4.50817 6.49517 4.18769C6.54246 3.41063 6.23437 2.62188 5.5932 2.08183C4.51677 1.17517 2.90916 1.3128 2.0025 2.38923C1.09585 3.46565 1.23347 5.07326 2.3099 5.97992C2.95086 6.51979 3.78015 6.6894 4.53765 6.51101C4.85042 6.43736 5.19201 6.47077 5.43777 6.67777C5.6835 6.88474 5.7745 7.21563 5.75511 7.53633C5.70816 8.31304 6.01626 9.10132 6.65715 9.64113C7.30422 10.1862 8.14325 10.3538 8.90657 10.167C9.34039 10.0609 9.8234 10.0796 10.165 10.3673C10.5067 10.6552 10.6072 11.1282 10.5762 11.5739C10.5216 12.3581 10.8294 13.1568 11.4767 13.702C12.1182 14.2423 12.9482 14.4117 13.7062 14.2327C14.0185 14.1589 14.3598 14.1922 14.6053 14.399C14.8508 14.6058 14.9416 14.9364 14.9221 15.2567C14.8746 16.034 15.1826 16.823 15.824 17.3632C16.9004 18.2699 18.508 18.1323 19.4147 17.0558C20.3213 15.9794 20.1837 14.3718 19.1073 13.4651C18.4665 12.9254 17.6375 12.7558 16.8802 12.9339C16.5673 13.0075 16.2255 12.9741 15.9797 12.767ZM18.6112 14.0595C19.3608 14.6909 19.4566 15.8105 18.8252 16.5601C18.1938 17.3097 17.0743 17.4056 16.3246 16.7742C15.575 16.1428 15.4791 15.0232 16.1105 14.2736C16.742 13.5239 17.8615 13.4281 18.6112 14.0595ZM17.9243 14.8742C18.2233 15.1261 18.2616 15.5727 18.0097 15.8718C17.7578 16.1709 17.3111 16.2091 17.0121 15.9572C16.713 15.7053 16.6748 15.2587 16.9267 14.9596C17.1786 14.6605 17.6252 14.6223 17.9243 14.8742ZM14.5461 12.9556C15.1776 12.2059 15.0817 11.0864 14.3321 10.455C13.5824 9.82357 12.4629 9.91942 11.8315 10.6691C11.2001 11.4187 11.2959 12.5383 12.0455 13.1697C12.7952 13.8011 13.9147 13.7052 14.5461 12.9556ZM13.7307 12.2671C13.9826 11.9681 13.9443 11.5214 13.6453 11.2695C13.3462 11.0176 12.8996 11.0559 12.6477 11.3549C12.3958 11.654 12.434 12.1006 12.7331 12.3525C13.0321 12.6044 13.4788 12.5662 13.7307 12.2671ZM9.44434 6.33845C10.194 6.96986 10.2898 8.08942 9.65841 8.83905C9.027 9.58869 7.90745 9.68454 7.15781 9.05313C6.40817 8.42172 6.31232 7.30216 6.94373 6.55252C7.57514 5.80289 8.6947 5.70704 9.44434 6.33845ZM8.75744 7.153C9.0565 7.4049 9.09474 7.85155 8.84284 8.15061C8.59094 8.44968 8.1443 8.48792 7.84523 8.23602C7.54616 7.98412 7.50793 7.53747 7.75983 7.23841C8.01172 6.93934 8.45837 6.9011 8.75744 7.153ZM5.37947 5.23512C6.01088 4.48548 5.91503 3.36592 5.1654 2.73452C4.41576 2.10311 3.2962 2.19895 2.66479 2.94859C2.03339 3.69823 2.12923 4.81779 2.87887 5.4492C3.62851 6.0806 4.74806 5.98476 5.37947 5.23512ZM4.56392 4.54701C4.81582 4.24794 4.77759 3.80129 4.47852 3.5494C4.17945 3.2975 3.73281 3.33573 3.48091 3.6348C3.22901 3.93387 3.26725 4.38051 3.56631 4.63241C3.86538 4.88431 4.31203 4.84607 4.56392 4.54701Z" fill="white"/>
<path fill-rule="evenodd" clip-rule="evenodd" d="M15.9787 18.2304C15.7328 18.4375 15.6417 18.7686 15.661 19.0895C15.7077 19.8659 15.3996 20.6538 14.7589 21.1934C14.1126 21.7378 13.2748 21.9057 12.5122 21.72C12.0779 21.6142 11.5945 21.6332 11.2527 21.9211C10.9104 22.2094 10.8097 22.6833 10.8406 23.1298C10.8949 23.9137 10.587 24.7119 9.94002 25.2568C9.29877 25.7969 8.46901 25.9664 7.71124 25.7877C7.3987 25.7139 7.05731 25.7473 6.81171 25.9541C6.56614 26.161 6.47524 26.4917 6.49474 26.8122C6.54203 27.5892 6.23395 28.378 5.59277 28.918C4.51634 29.8247 2.90873 29.6871 2.00208 28.6106C1.09542 27.5342 1.23304 25.9266 2.30947 25.0199C2.95043 24.4801 3.77973 24.3105 4.53723 24.4888C4.84999 24.5625 5.19158 24.5291 5.43734 24.3221C5.68307 24.1151 5.77407 23.7842 5.75468 23.4635C5.70773 22.6868 6.01583 21.8985 6.65672 21.3587C7.30325 20.8142 8.14139 20.6463 8.9042 20.8324C9.33833 20.9382 9.82154 20.9193 10.1633 20.6314C10.5055 20.3432 10.6061 19.8695 10.5751 19.4232C10.5206 18.639 10.8284 17.8405 11.4756 17.2953C12.117 16.7551 12.9471 16.5856 13.705 16.7646C14.0175 16.8384 14.3588 16.8051 14.6043 16.5983C14.8499 16.3915 14.9407 16.0609 14.9212 15.7405C14.8737 14.9632 15.1818 14.1742 15.8231 13.634C16.8995 12.7274 18.5071 12.865 19.4138 13.9414C20.3204 15.0179 20.1828 16.6255 19.1064 17.5321C18.4656 18.0718 17.6367 18.2415 16.8794 18.0634C16.5664 17.9898 16.2246 18.0232 15.9787 18.2304ZM18.6105 16.9387C19.3601 16.3073 19.456 15.1877 18.8246 14.4381C18.1932 13.6884 17.0736 13.5926 16.324 14.224C15.5743 14.8554 15.4785 15.9749 16.1099 16.7246C16.7413 17.4742 17.8609 17.5701 18.6105 16.9387ZM17.9236 16.124C18.2227 15.8721 18.2609 15.4254 18.009 15.1263C17.7571 14.8273 17.3105 14.789 17.0114 15.0409C16.7123 15.2928 16.6741 15.7395 16.926 16.0385C17.1779 16.3376 17.6246 16.3758 17.9236 16.124ZM14.5457 18.0419C15.1771 18.7916 15.0813 19.9111 14.3316 20.5425C13.582 21.1739 12.4624 21.0781 11.831 20.3285C11.1996 19.5788 11.2955 18.4593 12.0451 17.8279C12.7948 17.1965 13.9143 17.2923 14.5457 18.0419ZM13.7303 18.7302C13.9822 19.0292 13.9439 19.4759 13.6448 19.7278C13.3458 19.9797 12.8991 19.9414 12.6472 19.6424C12.3953 19.3433 12.4336 18.8967 12.7326 18.6448C13.0317 18.3929 13.4784 18.4311 13.7303 18.7302ZM9.44388 24.6616C10.1935 24.0302 10.2894 22.9106 9.65796 22.161C9.02655 21.4113 7.90699 21.3155 7.15736 21.9469C6.40772 22.5783 6.31187 23.6979 6.94328 24.4475C7.57469 25.1971 8.69425 25.293 9.44388 24.6616ZM8.75701 23.8469C9.05608 23.595 9.09431 23.1483 8.84241 22.8492C8.59052 22.5502 8.14387 22.5119 7.8448 22.7638C7.54574 23.0157 7.5075 23.4624 7.7594 23.7615C8.0113 24.0605 8.45794 24.0988 8.75701 23.8469ZM5.37904 25.7643C6.01045 26.5139 5.91461 27.6335 5.16497 28.2649C4.41533 28.8963 3.29577 28.8004 2.66436 28.0508C2.03296 27.3012 2.1288 26.1816 2.87844 25.5502C3.62808 24.9188 4.74764 25.0146 5.37904 25.7643ZM4.5635 26.4526C4.8154 26.7517 4.77716 27.1983 4.47809 27.4502C4.17903 27.7021 3.73238 27.6639 3.48048 27.3648C3.22858 27.0658 3.26682 26.6191 3.56589 26.3672C3.86495 26.1153 4.3116 26.1536 4.5635 26.4526Z" fill="white"/>
</svg>
