<svg width="21" height="15" viewBox="0 0 21 15" fill="none" xmlns="http://www.w3.org/2000/svg">
<path fill-rule="evenodd" clip-rule="evenodd" d="M9.39869 1.12477C10.1357 0.503985 11.2365 0.598219 11.8572 1.33525C12.2269 1.77412 12.343 2.34194 12.2209 2.8606C12.1705 3.07471 12.1933 3.30855 12.335 3.47678C12.4767 3.64502 12.7033 3.70731 12.9229 3.69402C13.4547 3.66181 13.9946 3.87276 14.3642 4.31163C14.7371 4.75429 14.852 5.32814 14.7246 5.85041C14.6521 6.14771 14.6651 6.4786 14.8622 6.71264C15.0594 6.94675 15.3834 7.01572 15.6887 6.99475C16.2252 6.95791 16.7713 7.1687 17.1442 7.61145C17.5138 8.0503 17.63 8.61809 17.5079 9.13673C17.4574 9.35089 17.4803 9.58477 17.6221 9.75304C17.7638 9.92132 17.9904 9.98362 18.21 9.97032C18.7419 9.93811 19.2817 10.1491 19.6514 10.5879C20.2722 11.325 20.1779 12.4257 19.4409 13.0465C18.7039 13.6673 17.6032 13.573 16.9824 12.836C16.6126 12.397 16.4965 11.8291 16.6188 11.3103C16.6693 11.0963 16.6464 10.8625 16.5047 10.6942C16.363 10.526 16.1365 10.4638 15.917 10.4771C15.385 10.5095 14.8449 10.2985 14.4752 9.85953C14.1019 9.41628 13.9871 8.8415 14.1153 8.31867C14.188 8.02183 14.1752 7.6913 13.9783 7.45754C13.7814 7.22372 13.4577 7.15494 13.1528 7.17626C12.6157 7.2138 12.0686 7.00305 11.6952 6.55971C11.3254 6.12068 11.2093 5.5526 11.3317 5.03379C11.3821 4.81981 11.3593 4.58608 11.2177 4.41793C11.076 4.24978 10.8496 4.18754 10.6301 4.2009C10.0981 4.2333 9.55801 4.02235 9.18822 3.58332C8.56743 2.84629 8.66166 1.74556 9.39869 1.12477ZM11.4506 1.67463C11.0183 1.16135 10.2517 1.09573 9.73846 1.52805C9.22518 1.96038 9.15955 2.72694 9.59188 3.24022C10.0242 3.7535 10.7908 3.81912 11.304 3.3868C11.8173 2.95447 11.8829 2.18791 11.4506 1.67463ZM10.8923 2.14493C10.7198 1.94016 10.414 1.91398 10.2092 2.08646C10.0045 2.25893 9.97828 2.56475 10.1508 2.76952C10.3232 2.97429 10.629 3.00047 10.8338 2.828C11.0386 2.65552 11.0648 2.3497 10.8923 2.14493ZM12.2065 4.45765C12.7197 4.02532 13.4863 4.09095 13.9186 4.60422C14.351 5.1175 14.2853 5.88406 13.7721 6.31639C13.2588 6.74871 12.4922 6.68309 12.0599 6.16981C11.6276 5.65654 11.6932 4.88997 12.2065 4.45765ZM12.6773 5.01605C12.882 4.84358 13.1878 4.86976 13.3603 5.07453C13.5328 5.2793 13.5066 5.58512 13.3018 5.75759C13.0971 5.93007 12.7912 5.90389 12.6188 5.69912C12.4463 5.49434 12.4725 5.18853 12.6773 5.01605ZM16.7374 7.95102C16.3051 7.43774 15.5386 7.37212 15.0253 7.80444C14.512 8.23677 14.4464 9.00333 14.8787 9.51661C15.311 10.0299 16.0776 10.0955 16.5909 9.66319C17.1041 9.23086 17.1698 8.4643 16.7374 7.95102ZM16.1791 8.42132C16.0067 8.21655 15.7008 8.19037 15.4961 8.36285C15.2913 8.53532 15.2651 8.84114 15.4376 9.04591C15.6101 9.25068 15.9159 9.27686 16.1207 9.10439C16.3254 8.93191 16.3516 8.62609 16.1791 8.42132ZM17.4931 10.7341C18.0063 10.3018 18.7729 10.3674 19.2052 10.8807C19.6375 11.394 19.5719 12.1605 19.0586 12.5929C18.5454 13.0252 17.7788 12.9596 17.3465 12.4463C16.9142 11.933 16.9798 11.1665 17.4931 10.7341ZM17.9638 11.2925C18.1686 11.1201 18.4744 11.1462 18.6469 11.351C18.8194 11.5558 18.7932 11.8616 18.5884 12.0341C18.3837 12.2066 18.0778 12.1804 17.9054 11.9756C17.7329 11.7708 17.7591 11.465 17.9638 11.2925Z" fill="#8D8981"/>
<path fill-rule="evenodd" clip-rule="evenodd" d="M11.5312 1.12453C10.7942 0.503745 9.69344 0.597978 9.07265 1.33501C8.703 1.77388 8.58687 2.3417 8.70901 2.86036C8.75943 3.07447 8.73655 3.30831 8.59485 3.47654C8.45315 3.64478 8.2266 3.70707 8.00704 3.69378C7.47516 3.66157 6.93534 3.87252 6.56568 4.31139C6.19278 4.75412 6.07788 5.32809 6.20533 5.85044C6.27786 6.14768 6.26493 6.47854 6.06782 6.71256C5.87063 6.94668 5.54659 7.01561 5.24122 6.99454C4.70461 6.95752 4.15824 7.1683 3.7852 7.6112C3.41556 8.05005 3.29943 8.61784 3.42154 9.13648C3.47196 9.35064 3.44908 9.58452 3.30735 9.7528C3.16561 9.92108 2.939 9.98338 2.71937 9.97007C2.18749 9.93786 1.64766 10.1488 1.278 10.5877C0.657214 11.3247 0.751447 12.4254 1.48848 13.0462C2.22551 13.667 3.32624 13.5728 3.94703 12.8358C4.31675 12.3968 4.43286 11.8288 4.31059 11.3101C4.26013 11.096 4.28299 10.8622 4.42467 10.694C4.56636 10.5258 4.7929 10.4635 5.01244 10.4769C5.54445 10.5092 6.08447 10.2983 6.45422 9.85928C6.82736 9.41627 6.94217 8.84185 6.81433 8.31925C6.74167 8.02222 6.75454 7.69153 6.95153 7.45765C7.14861 7.22367 7.47249 7.15483 7.77768 7.17606C8.31461 7.21341 8.86142 7.00265 9.23471 6.55947C9.60449 6.12044 9.72057 5.55236 9.59821 5.03355C9.54774 4.81957 9.57059 4.58584 9.71222 4.41769C9.85385 4.24954 10.0803 4.1873 10.2997 4.20066C10.8318 4.23306 11.3719 4.02211 11.7417 3.58308C12.3625 2.84605 12.2682 1.74532 11.5312 1.12453ZM9.47927 1.67439C9.91159 1.16111 10.6782 1.09549 11.1914 1.52781C11.7047 1.96014 11.7703 2.7267 11.338 3.23998C10.9057 3.75325 10.1391 3.81888 9.62585 3.38656C9.11257 2.95423 9.04695 2.18767 9.47927 1.67439ZM10.0376 2.14469C10.2101 1.93992 10.5159 1.91374 10.7207 2.08622C10.9254 2.25869 10.9516 2.56451 10.7791 2.76928C10.6067 2.97405 10.3008 3.00023 10.0961 2.82776C9.8913 2.65528 9.86512 2.34946 10.0376 2.14469ZM8.72339 4.45741C8.21011 4.02508 7.44355 4.09071 7.01122 4.60398C6.5789 5.11726 6.64452 5.88382 7.1578 6.31615C7.67108 6.74847 8.43764 6.68285 8.86996 6.16957C9.30229 5.65629 9.23666 4.88973 8.72339 4.45741ZM8.25261 5.01581C8.04784 4.84334 7.74202 4.86952 7.56954 5.07429C7.39707 5.27906 7.42325 5.58488 7.62802 5.75735C7.83279 5.92983 8.13861 5.90365 8.31108 5.69887C8.48356 5.4941 8.45738 5.18829 8.25261 5.01581ZM4.19195 7.95078C4.62428 7.4375 5.39084 7.37188 5.90412 7.8042C6.41739 8.23653 6.48302 9.00309 6.05069 9.51637C5.61837 10.0296 4.85181 10.0953 4.33853 9.66295C3.82525 9.23062 3.75963 8.46406 4.19195 7.95078ZM4.75027 8.42108C4.92275 8.21631 5.22857 8.19013 5.43334 8.36261C5.63811 8.53508 5.66429 8.8409 5.49182 9.04567C5.31934 9.25044 5.01352 9.27662 4.80875 9.10415C4.60398 8.93167 4.5778 8.62585 4.75027 8.42108ZM3.43634 10.7339C2.92307 10.3016 2.1565 10.3672 1.72418 10.8805C1.29185 11.3937 1.35748 12.1603 1.87076 12.5926C2.38403 13.025 3.1506 12.9593 3.58292 12.4461C4.01525 11.9328 3.94962 11.1662 3.43634 10.7339ZM2.96557 11.2923C2.76079 11.1198 2.45498 11.146 2.2825 11.3508C2.11003 11.5555 2.13621 11.8614 2.34098 12.0338C2.54575 12.2063 2.85157 12.1801 3.02404 11.9754C3.19652 11.7706 3.17034 11.4648 2.96557 11.2923Z" fill="#8D8981"/>
</svg>
