<svg width="18" height="19" viewBox="0 0 18 19" fill="none" xmlns="http://www.w3.org/2000/svg">
<g clip-path="url(#clip0_755_3272)">
<path d="M16.8099 9.26697C15.1249 6.15197 12.1699 4.26697 8.89986 4.26697C5.62986 4.26697 2.66986 6.15197 0.999863 9.26697L0.859863 9.50197L0.989863 9.74197C2.67486 12.857 5.62986 14.742 8.89986 14.742C12.1699 14.742 15.1299 12.882 16.8099 9.74197L16.9399 9.50197L16.8099 9.26697ZM8.89986 13.717C6.08486 13.717 3.49986 12.147 1.99986 9.50197C3.49986 6.85697 6.08486 5.28697 8.89986 5.28697C11.7149 5.28697 14.2699 6.86197 15.7949 9.50197C14.2699 12.147 11.7099 13.717 8.89986 13.717Z" fill="white"/>
<path d="M11.9752 9.51691C11.9752 11.1351 10.6634 12.4469 9.04523 12.4469C7.42704 12.4469 6.11523 11.1351 6.11523 9.51691C6.11523 7.89872 7.42704 6.58691 9.04523 6.58691C10.6634 6.58691 11.9752 7.89872 11.9752 9.51691Z" stroke="white"/>
</g>
<defs>
<clipPath id="clip0_755_3272">
<rect width="18" height="18" fill="white" transform="translate(0 0.501953)"/>
</clipPath>
</defs>
</svg>
