<svg width="33" height="33" viewBox="0 0 33 33" fill="none" xmlns="http://www.w3.org/2000/svg">
<path fill-rule="evenodd" clip-rule="evenodd" d="M19.3662 24.8015C19.5815 24.389 20.0207 24.1562 20.4802 24.0826C21.5925 23.9046 22.6094 23.2213 23.1707 22.146C23.7369 21.0613 23.7107 19.8242 23.2083 18.8047C22.9225 18.2247 22.7976 17.5363 23.0968 16.9631C23.3962 16.3895 24.0332 16.0984 24.6731 16.0016C25.7977 15.8316 26.8286 15.1456 27.3953 14.0601C27.9571 12.9838 27.9357 11.7576 27.4446 10.7427C27.2421 10.3242 27.1819 9.83114 27.397 9.41894C27.6122 9.00683 28.051 8.77438 28.51 8.70119C29.6232 8.52371 30.6412 7.84025 31.2029 6.76419C32.1459 4.95769 31.4459 2.72877 29.6394 1.78576C27.8329 0.842759 25.604 1.54276 24.661 3.34926C24.0995 4.42488 24.1205 5.65025 24.6107 6.66477C24.8132 7.0838 24.8734 7.57724 24.658 7.9898C24.4427 8.40227 24.0036 8.63498 23.5442 8.70849C22.4318 8.88647 21.4147 9.56976 20.8533 10.6452C20.2861 11.7318 20.3134 12.9712 20.8183 13.9917C21.1045 14.5703 21.2296 15.2577 20.9309 15.83C20.6319 16.4027 19.9957 16.6931 19.3567 16.7887C18.2298 16.9573 17.1963 17.6437 16.6287 18.7311C16.0668 19.8075 16.0883 21.0339 16.5795 22.0488C16.7821 22.4673 16.8423 22.9602 16.6272 23.3724C16.4121 23.7844 15.9734 24.0168 15.5144 24.0899C14.401 24.2673 13.3829 24.9508 12.8211 26.027C11.8781 27.8335 12.5781 30.0624 14.3846 31.0054C16.1911 31.9484 18.42 31.2484 19.363 29.4419C19.9245 28.3664 19.9035 27.1412 19.4135 26.1268C19.211 25.7077 19.1508 25.2141 19.3662 24.8015ZM18.367 28.9278C17.7103 30.1859 16.1581 30.6734 14.9 30.0166C13.6419 29.3599 13.1544 27.8077 13.8112 26.5496C14.4679 25.2915 16.0201 24.804 17.2782 25.4608C18.5363 26.1175 19.0238 27.6697 18.367 28.9278ZM16.9997 28.2132C16.7377 28.7151 16.1185 28.9096 15.6166 28.6476C15.1147 28.3856 14.9202 27.7664 15.1822 27.2645C15.4442 26.7626 16.0634 26.5681 16.5653 26.8301C17.0672 27.0921 17.2617 27.7113 16.9997 28.2132ZM18.649 22.8362C19.907 23.4929 21.4593 23.0054 22.116 21.7473C22.7727 20.4893 22.2852 18.937 21.0271 18.2803C19.7691 17.6236 18.2168 18.1111 17.5601 19.3691C16.9034 20.6272 17.3909 22.1795 18.649 22.8362ZM19.3654 21.467C19.8673 21.729 20.4866 21.5346 20.7486 21.0327C21.0106 20.5307 20.8161 19.9115 20.3142 19.6495C19.8123 19.3875 19.193 19.582 18.931 20.0839C18.669 20.5858 18.8635 21.205 19.3654 21.467ZM26.3974 13.5458C25.7407 14.8038 24.1885 15.2913 22.9304 14.6346C21.6723 13.9779 21.1848 12.4256 21.8416 11.1676C22.4983 9.90949 24.0505 9.422 25.3086 10.0787C26.5667 10.7354 27.0541 12.2877 26.3974 13.5458ZM25.03 12.8309C24.768 13.3328 24.1488 13.5273 23.6469 13.2653C23.145 13.0033 22.9505 12.384 23.2125 11.8821C23.4745 11.3802 24.0937 11.1857 24.5957 11.4477C25.0976 11.7097 25.292 12.329 25.03 12.8309ZM26.6783 7.45316C27.9364 8.10988 29.4886 7.62239 30.1454 6.36432C30.8021 5.10625 30.3146 3.554 29.0565 2.89728C27.7984 2.24056 26.2462 2.72805 25.5895 3.98612C24.9328 5.24419 25.4202 6.79644 26.6783 7.45316ZM27.3947 6.08406C27.8966 6.34605 28.5159 6.15157 28.7779 5.64966C29.0399 5.14776 28.8454 4.52849 28.3435 4.2665C27.8416 4.0045 27.2223 4.19898 26.9603 4.70089C26.6983 5.20279 26.8928 5.82206 27.3947 6.08406Z" fill="#7AC500"/>
<path fill-rule="evenodd" clip-rule="evenodd" d="M12.922 24.662C12.7238 24.2409 12.2946 23.9904 11.8385 23.898C10.7343 23.6745 9.74605 22.95 9.22934 21.8523C8.72666 20.7845 8.78047 19.5977 9.27297 18.6194C9.46442 18.239 9.46727 17.77 9.19296 17.4443C8.8916 17.0865 8.36899 17.0317 7.93647 17.2099C6.74171 17.7022 5.32299 17.5514 4.23761 16.6925C2.6396 15.428 2.36927 13.1074 3.63382 11.5094C4.89837 9.91141 7.21893 9.64109 8.81694 10.9056C9.67031 11.5809 10.145 12.5574 10.2096 13.5641C10.2567 14.298 10.3811 15.0605 10.8548 15.623C11.4028 16.2736 12.2829 16.5038 13.1237 16.6327C14.2971 16.8126 15.3625 17.5545 15.9061 18.7093C16.4232 19.8076 16.3515 21.0317 15.8193 22.0255C15.5997 22.4354 15.5193 22.9256 15.7173 23.3464C15.9154 23.7671 16.3444 24.0174 16.8002 24.1095C17.9051 24.3326 18.894 25.0573 19.411 26.1555C20.279 27.9993 19.4879 30.1975 17.6441 31.0655C15.8004 31.9334 13.6021 31.1423 12.7342 29.2986C12.2175 28.2008 12.2888 26.9774 12.8203 25.9839C13.0398 25.5736 13.1202 25.083 12.922 24.662ZM13.749 28.826C14.3534 30.11 15.8843 30.6609 17.1683 30.0565C18.4523 29.4521 19.0032 27.9212 18.3988 26.6372C17.7943 25.3532 16.2635 24.8023 14.9794 25.4067C13.6954 26.0111 13.1445 27.542 13.749 28.826ZM15.1447 28.1687C15.3859 28.6809 15.9966 28.9007 16.5089 28.6596C17.0211 28.4184 17.2409 27.8077 16.9998 27.2954C16.7586 26.7832 16.1479 26.5634 15.6356 26.8045C15.1234 27.0457 14.9036 27.6564 15.1447 28.1687ZM13.7183 22.7275C12.4343 23.332 10.9034 22.781 10.299 21.497C9.69453 20.213 10.2454 18.6821 11.5294 18.0777C12.8135 17.4733 14.3443 18.0242 14.9488 19.3082C15.5532 20.5922 15.0023 22.1231 13.7183 22.7275ZM13.0589 21.3306C12.5466 21.5717 11.9359 21.352 11.6947 20.8397C11.4536 20.3274 11.6734 19.7167 12.1856 19.4756C12.6979 19.2344 13.3086 19.4542 13.5498 19.9665C13.7909 20.4787 13.5711 21.0895 13.0589 21.3306ZM4.93887 15.8158C6.05174 16.6964 7.66781 16.5082 8.54846 15.3953C9.42911 14.2824 9.24085 12.6664 8.12798 11.7857C7.0151 10.9051 5.39904 11.0933 4.51839 12.2062C3.63774 13.3191 3.826 14.9351 4.93887 15.8158ZM5.89552 14.605C6.3395 14.9564 6.98423 14.8812 7.33556 14.4373C7.68689 13.9933 7.61179 13.3486 7.16781 12.9972C6.72383 12.6459 6.07911 12.721 5.72777 13.165C5.37644 13.609 5.45155 14.2537 5.89552 14.605Z" fill="#7AC500"/>
</svg>
