<svg width="30" height="29" viewBox="0 0 30 29" fill="none" xmlns="http://www.w3.org/2000/svg">
<path fill-rule="evenodd" clip-rule="evenodd" d="M22.3172 9.3852C21.9882 9.71426 21.8977 10.203 21.9652 10.6635C22.1285 11.7779 21.7814 12.9528 20.9237 13.8105C20.0584 14.6758 18.8704 15.0215 17.7472 14.8476C17.1082 14.7487 16.414 14.8358 15.9567 15.293C15.4992 15.7506 15.4123 16.4455 15.5117 17.0849C15.6864 18.2088 15.3409 19.3979 14.475 20.2638C13.6165 21.1223 12.4403 21.4693 11.3249 21.3049C10.8648 21.237 10.3764 21.3273 10.0476 21.6561C9.71891 21.9848 9.62862 22.4731 9.69634 22.933C9.86056 24.0482 9.5135 25.2242 8.65518 26.0825C7.21423 27.5235 4.87797 27.5235 3.43702 26.0825C1.99606 24.6416 1.99606 22.3053 3.43702 20.8644C4.29498 20.0064 5.47035 19.6593 6.58514 19.823C7.04559 19.8906 7.5344 19.8002 7.86347 19.4711C8.19247 19.1421 8.28292 18.6535 8.2154 18.1931C8.05191 17.0785 8.39906 15.9034 9.25686 15.0456C10.1236 14.1789 11.3142 13.8335 12.4391 14.0095C13.0769 14.1092 13.7702 14.0226 14.2267 13.5661C14.6836 13.1092 14.7699 12.4153 14.6697 11.777C14.4929 10.6514 14.8382 9.4597 15.7055 8.59236C16.5641 7.73377 17.7405 7.38676 18.8561 7.55135C19.316 7.61921 19.8043 7.52898 20.1331 7.20025C20.4617 6.87159 20.552 6.38337 20.4842 5.92354C20.3199 4.80821 20.6669 3.63205 21.5253 2.77363C22.9663 1.33268 25.3025 1.33267 26.7435 2.77363C28.1845 4.21459 28.1845 6.55084 26.7435 7.9918C25.8856 8.84966 24.7104 9.1968 23.5958 9.03322C23.1352 8.96563 22.6464 9.05607 22.3172 9.3852ZM25.9546 7.1956C26.9581 6.1921 26.9581 4.5651 25.9546 3.5616C24.9511 2.5581 23.3241 2.5581 22.3206 3.5616C21.3171 4.5651 21.3171 6.1921 22.3206 7.1956C23.3241 8.1991 24.9511 8.1991 25.9546 7.1956ZM24.8632 6.10521C25.2635 5.70487 25.2635 5.05578 24.8632 4.65544C24.4628 4.25509 23.8137 4.2551 23.4134 4.65544C23.013 5.05578 23.013 5.70487 23.4134 6.10521C23.8137 6.50556 24.4628 6.50556 24.8632 6.10521ZM20.2273 9.28977C21.2308 10.2933 21.2308 11.9203 20.2273 12.9238C19.2238 13.9273 17.5968 13.9273 16.5933 12.9238C15.5898 11.9203 15.5898 10.2933 16.5933 9.28977C17.5968 8.28627 19.2238 8.28627 20.2273 9.28977ZM19.1357 10.3835C19.5361 10.7839 19.5361 11.433 19.1357 11.8333C18.7354 12.2336 18.0863 12.2336 17.6859 11.8333C17.2856 11.433 17.2856 10.7839 17.6859 10.3835C18.0863 9.98318 18.7354 9.98318 19.1357 10.3835ZM13.6853 19.4659C14.6888 18.4624 14.6888 16.8354 13.6853 15.8319C12.6818 14.8284 11.0548 14.8284 10.0513 15.8319C9.04785 16.8354 9.04785 18.4624 10.0513 19.4659C11.0548 20.4694 12.6818 20.4694 13.6853 19.4659ZM12.5936 18.3755C12.994 17.9752 12.994 17.3261 12.5936 16.9258C12.1933 16.5254 11.5442 16.5254 11.1439 16.9258C10.7435 17.3261 10.7435 17.9752 11.1439 18.3755C11.5442 18.7759 12.1933 18.7759 12.5936 18.3755ZM7.95682 21.5594C8.96032 22.5629 8.96032 24.1899 7.95682 25.1934C6.95332 26.1969 5.32633 26.1969 4.32283 25.1934C3.31933 24.1899 3.31933 22.5629 4.32283 21.5594C5.32633 20.5559 6.95332 20.5559 7.95682 21.5594ZM6.86526 22.6531C7.26561 23.0534 7.26561 23.7025 6.86526 24.1029C6.46492 24.5032 5.81583 24.5032 5.41549 24.1029C5.01515 23.7025 5.01515 23.0534 5.41549 22.6531C5.81583 22.2527 6.46492 22.2527 6.86526 22.6531Z" fill="#FF2E00"/>
<path fill-rule="evenodd" clip-rule="evenodd" d="M7.86344 9.3852C8.1925 9.71426 8.28297 10.203 8.21549 10.6635C8.05214 11.7779 8.39931 12.9528 9.25701 13.8105C10.1223 14.6758 11.3103 15.0215 12.4335 14.8476C13.0725 14.7487 13.7667 14.8358 14.2239 15.293C14.6815 15.7506 14.7683 16.4455 14.6689 17.0849C14.4942 18.2088 14.8398 19.3979 15.7056 20.2638C16.5641 21.1223 17.7404 21.4693 18.8558 21.3049C19.3158 21.237 19.8042 21.3273 20.133 21.6561C20.4617 21.9848 20.552 22.4731 20.4843 22.933C20.3201 24.0482 20.6672 25.2242 21.5255 26.0825C22.9664 27.5235 25.3027 27.5235 26.7436 26.0825C28.1846 24.6416 28.1846 22.3053 26.7436 20.8644C25.8857 20.0064 24.7103 19.6593 23.5955 19.823C23.1351 19.8906 22.6463 19.8002 22.3172 19.4711C21.9882 19.1421 21.8977 18.6535 21.9653 18.1931C22.1288 17.0785 21.7816 15.9034 20.9238 15.0456C20.0571 14.1789 18.8664 13.8335 17.7415 14.0095C17.1037 14.1092 16.4104 14.0226 15.954 13.5661C15.4971 13.1092 15.4107 12.4153 15.511 11.777C15.6878 10.6514 15.3425 9.4597 14.4752 8.59236C13.6166 7.73377 12.4401 7.38677 11.3246 7.55135C10.8647 7.61921 10.3763 7.52898 10.0476 7.20025C9.71894 6.87159 9.62867 6.38337 9.69643 5.92354C9.86079 4.80821 9.51376 3.63206 8.65533 2.77363C7.21438 1.33268 4.87813 1.33268 3.43717 2.77363C1.99621 4.21459 1.99621 6.55084 3.43717 7.9918C4.29503 8.84966 5.47022 9.1968 6.58489 9.03322C7.04542 8.96563 7.53431 9.05607 7.86344 9.3852ZM4.2261 7.1956C3.2226 6.1921 3.2226 4.5651 4.2261 3.5616C5.2296 2.5581 6.8566 2.5581 7.8601 3.5616C8.8636 4.5651 8.8636 6.1921 7.8601 7.1956C6.8566 8.1991 5.2296 8.1991 4.2261 7.1956ZM5.31751 6.10521C4.91717 5.70487 4.91717 5.05578 5.31751 4.65544C5.71786 4.2551 6.36694 4.2551 6.76729 4.65544C7.16763 5.05578 7.16763 5.70487 6.76729 6.10521C6.36694 6.50556 5.71786 6.50556 5.31751 6.10521ZM9.95338 9.28977C8.94988 10.2933 8.94988 11.9203 9.95338 12.9238C10.9569 13.9273 12.5839 13.9273 13.5874 12.9238C14.5909 11.9203 14.5909 10.2933 13.5874 9.28977C12.5839 8.28627 10.9569 8.28627 9.95338 9.28977ZM11.045 10.3835C10.6446 10.7839 10.6446 11.433 11.045 11.8333C11.4453 12.2336 12.0944 12.2336 12.4947 11.8333C12.8951 11.433 12.8951 10.7839 12.4947 10.3835C12.0944 9.98318 11.4453 9.98318 11.045 10.3835ZM16.4953 19.4659C15.4918 18.4624 15.4918 16.8354 16.4953 15.8319C17.4988 14.8284 19.1258 14.8284 20.1293 15.8319C21.1328 16.8354 21.1328 18.4624 20.1293 19.4659C19.1258 20.4694 17.4988 20.4694 16.4953 19.4659ZM17.587 18.3755C17.1867 17.9752 17.1867 17.3261 17.587 16.9258C17.9874 16.5254 18.6365 16.5254 19.0368 16.9258C19.4372 17.3261 19.4372 17.9752 19.0368 18.3755C18.6365 18.7759 17.9874 18.7759 17.587 18.3755ZM22.2238 21.5594C21.2203 22.5629 21.2203 24.1899 22.2238 25.1934C23.2273 26.1969 24.8543 26.1969 25.8578 25.1934C26.8613 24.1899 26.8613 22.5629 25.8578 21.5594C24.8543 20.5559 23.2273 20.5559 22.2238 21.5594ZM23.3154 22.6531C22.9151 23.0534 22.9151 23.7025 23.3154 24.1029C23.7157 24.5032 24.3648 24.5032 24.7652 24.1029C25.1655 23.7025 25.1655 23.0534 24.7652 22.6531C24.3648 22.2527 23.7157 22.2527 23.3154 22.6531Z" fill="#FF2E00"/>
</svg>
