<svg width="15" height="16" viewBox="0 0 15 16" fill="none" xmlns="http://www.w3.org/2000/svg">
<g clip-path="url(#clip0_839_1450)">
<path d="M1.75826 10.1126L0.966589 13.5293C0.939279 13.6542 0.940215 13.7836 0.969329 13.9081C0.998442 14.0326 1.055 14.149 1.13486 14.2488C1.21473 14.3487 1.31589 14.4294 1.43095 14.4851C1.54602 14.5409 1.67208 14.5702 1.79992 14.571C1.85949 14.577 1.91952 14.577 1.97909 14.571L5.41659 13.7793L12.0166 7.2043L8.33325 3.5293L1.75826 10.1126Z" fill="white" fill-opacity="0.5"/>
<path d="M14.0915 3.91254L11.6331 1.4542C11.4715 1.2934 11.2528 1.20312 11.0248 1.20312C10.7968 1.20312 10.5781 1.2934 10.4165 1.4542L9.0498 2.82087L12.729 6.50004L14.0956 5.13337C14.1756 5.05299 14.239 4.95762 14.282 4.85273C14.3251 4.74784 14.3471 4.63548 14.3467 4.52209C14.3463 4.4087 14.3236 4.29649 14.2798 4.1919C14.236 4.0873 14.172 3.99237 14.0915 3.91254Z" fill="white" fill-opacity="0.5"/>
</g>
<defs>
<clipPath id="clip0_839_1450">
<rect width="15" height="15" fill="white" transform="translate(0 0.446289)"/>
</clipPath>
</defs>
</svg>
