<svg width="136" height="135" viewBox="0 0 136 135" fill="none" xmlns="http://www.w3.org/2000/svg">
<path fill-rule="evenodd" clip-rule="evenodd" d="M71.302 4.32406L67.987 0.194336L64.6721 4.32406L60.9437 0.563461L58.0786 5.01707L53.9775 1.66679L51.5937 6.39549L47.1648 3.49225L45.3319 8.32933C45.2641 8.33926 45.1964 8.35015 45.1287 8.36203L40.5803 6.01982L39.2317 11.1408L34.296 9.22182L33.4901 14.4557L28.3809 13.0632L28.1264 18.3526L22.8996 17.5018L23.1995 22.7889L17.9124 22.489L18.7633 27.7158L13.4738 27.9702L14.8664 33.0794L9.63247 33.8854L11.5515 38.821L6.43047 40.1696L8.85486 44.8777L3.90289 46.7542L6.80613 51.183L2.07744 53.5669L5.42772 57.668L0.974106 60.5331L4.73471 64.2615L0.60498 67.5764L4.73471 70.8913L0.974106 74.6197L5.42772 77.4848L2.07744 81.5859L6.80613 83.9698L3.90289 88.3986L8.85486 90.2751L6.43047 94.9832L11.5515 96.3318L9.63247 101.267L14.8664 102.073L13.4738 107.183L18.7633 107.437L17.9124 112.664L23.1995 112.364L22.8996 117.651L28.1264 116.8L28.3809 122.09L33.4901 120.697L34.296 125.931L39.2317 124.012L40.5803 129.133L45.2883 126.709L47.1648 131.661L51.5937 128.757L53.9775 133.486L58.0786 130.136L60.9437 134.589L64.6721 130.829L67.987 134.958L71.302 130.829L75.0304 134.589L77.8955 130.136L81.9966 133.486L84.3804 128.757L88.8092 131.661L90.6858 126.709L95.3938 129.133L96.7424 124.012L101.678 125.931L102.484 120.697L107.593 122.09L107.848 116.8L113.074 117.651L112.775 112.364L118.062 112.664L117.211 107.437L122.5 107.183L121.108 102.073L126.342 101.267L124.423 96.3318L129.544 94.9832L127.119 90.2751L132.071 88.3986L129.168 83.9698L133.897 81.5859L130.546 77.4848L135 74.6197L131.239 70.8913L135.369 67.5764L131.239 64.2615L135 60.5331L130.546 57.668L133.897 53.5669L129.168 51.183L132.071 46.7542L127.119 44.8777L129.544 40.1696L124.423 38.821L126.342 33.8854L121.108 33.0794L122.5 27.9702L117.211 27.7158L118.062 22.489L112.775 22.7889L113.074 17.5018L107.848 18.3526L107.593 13.0632L102.484 14.4557L101.678 9.22182L96.7424 11.1408L95.3938 6.01982L90.6858 8.44422L88.8092 3.49225L84.3804 6.39549L81.9966 1.66679L77.8955 5.01707L75.0304 0.563461L71.302 4.32406ZM13.5045 61.0335C15.5768 43.5936 25.829 28.6628 40.3168 20.1855L45.5629 32.7403C51.1843 46.1934 41.3017 61.0335 26.7215 61.0335H13.5045ZM38.967 114.151C25.3118 105.625 15.6774 91.2603 13.5575 74.5513L27.1506 74.5513C40.9926 74.5513 50.0522 89.0485 43.9853 101.49L39.7575 110.16C39.133 111.441 38.8818 112.814 38.967 114.151ZM67.9871 122.445C62.3263 122.445 56.8657 121.588 51.7281 119.996C52.8127 119.176 53.7048 118.062 54.2701 116.698L58.8654 105.605C63.9686 93.2874 80.1962 90.5449 89.0639 100.502L98.6352 111.249C98.9872 111.644 99.3715 111.995 99.7808 112.3C90.8112 118.688 79.8379 122.445 67.9871 122.445ZM122.856 67.5765C122.856 80.5717 118.338 92.5117 110.788 101.912C110.523 101.512 110.216 101.13 109.867 100.773L98.1758 88.801C87.9514 78.3318 90.2787 61.0431 102.908 53.6503L117.328 45.2086C117.536 45.0868 117.736 44.9567 117.929 44.819C121.093 51.7517 122.856 59.4582 122.856 67.5765ZM109.36 32.1812C109.481 32.1039 109.603 32.0305 109.727 31.9609C99.6633 20.1779 84.6976 12.7078 67.9871 12.7078C63.1079 12.7078 58.3774 13.3446 53.8742 14.5398L59.6914 29.5939C65.1872 43.8163 82.3326 49.439 95.1835 41.2333L109.36 32.1812ZM67.1371 73.9124C70.6363 73.9124 73.473 71.0757 73.473 67.5765C73.473 64.0773 70.6363 61.2406 67.1371 61.2406C63.6379 61.2406 60.8012 64.0773 60.8012 67.5765C60.8012 71.0757 63.6379 73.9124 67.1371 73.9124ZM54.7512 27.2935C54.7512 29.0431 53.3329 30.4614 51.5833 30.4614C49.8337 30.4614 48.4154 29.0431 48.4154 27.2935C48.4154 25.5439 49.8337 24.1255 51.5833 24.1255C53.3329 24.1255 54.7512 25.5439 54.7512 27.2935ZM106.143 44.6592C106.143 46.4088 104.725 47.8271 102.975 47.8271C101.225 47.8271 99.807 46.4088 99.807 44.6592C99.807 42.9096 101.225 41.4913 102.975 41.4913C104.725 41.4913 106.143 42.9096 106.143 44.6592ZM97.0215 101.629C98.7711 101.629 100.189 100.21 100.189 98.4607C100.189 96.7111 98.7711 95.2928 97.0215 95.2928C95.2719 95.2928 93.8535 96.7111 93.8535 98.4607C93.8535 100.21 95.2719 101.629 97.0215 101.629ZM50.7706 107.965C52.5202 107.965 53.9385 106.546 53.9385 104.797C53.9385 103.047 52.5202 101.629 50.7706 101.629C49.021 101.629 47.6027 103.047 47.6027 104.797C47.6027 106.546 49.021 107.965 50.7706 107.965ZM28.8884 70.7444C30.638 70.7444 32.0563 69.326 32.0563 67.5764C32.0563 65.8268 30.638 64.4085 28.8884 64.4085C27.1388 64.4085 25.7204 65.8268 25.7204 67.5764C25.7204 69.326 27.1388 70.7444 28.8884 70.7444Z" fill="#271C05"/>
</svg>
