<svg width="89" height="135" viewBox="0 0 89 135" fill="none" xmlns="http://www.w3.org/2000/svg">
<path fill-rule="evenodd" clip-rule="evenodd" d="M1.00946 70.3398C-0.715352 74.3003 1.09703 78.9091 5.05752 80.6339C5.88105 80.9926 6.7326 81.1983 7.58044 81.2636C7.80028 81.2821 8.02271 81.2916 8.24735 81.2916C10.8199 81.2916 13.1024 80.0496 14.5279 78.1326C15.1163 77.3413 15.9841 76.7444 16.9701 76.7444C17.9562 76.7444 18.8239 77.3413 19.4123 78.1326C20.8379 80.0497 23.1203 81.2916 25.6929 81.2916C28.2895 81.2916 30.5906 80.0263 32.0132 78.0787C32.8217 76.9718 33.9927 76.0609 35.3634 76.0609C36.7341 76.0609 37.9051 76.9718 38.7136 78.0787C40.1362 80.0264 42.4373 81.2917 45.0339 81.2917C47.6064 81.2917 49.8889 80.0498 51.3144 78.1329C51.9028 77.3416 52.7706 76.7447 53.7567 76.7447C54.7338 76.7447 55.4064 77.5251 56.0665 78.291C56.2313 78.4822 56.3952 78.6724 56.563 78.8494C57.9885 80.3536 60.0053 81.2918 62.2412 81.2918C62.2812 81.2918 62.3212 81.2915 62.3611 81.2909C62.3825 81.2912 62.4039 81.2914 62.4253 81.2916C62.4434 81.2917 62.4614 81.2917 62.4795 81.2917C64.7153 81.2917 66.732 80.3537 68.1574 78.8497C68.3252 78.6726 68.4892 78.4823 68.654 78.2911C69.3142 77.5252 69.9869 76.7447 70.9641 76.7447C71.3704 76.7447 71.7566 76.8461 72.1115 77.0206C72.9272 78.6057 74.2668 79.8709 75.8943 80.5953C76.0888 80.9513 76.2082 81.343 76.2219 81.7593C76.2543 82.7447 75.6862 83.6316 74.9147 84.2455C73.0454 85.7332 71.8789 88.0553 71.9633 90.6266C72.0486 93.2221 73.389 95.4807 75.3827 96.8385C76.5157 97.6102 77.4646 98.7505 77.5095 100.121C77.5545 101.49 76.6826 102.691 75.6029 103.535C73.7028 105.021 72.5136 107.362 72.5988 109.957C72.6833 112.529 73.9995 114.769 75.9623 116.131C76.7724 116.693 77.3974 117.541 77.4298 118.526C77.4621 119.512 76.894 120.398 76.1225 121.012C74.2532 122.5 73.0868 124.822 73.1712 127.393C73.313 131.711 76.9279 135.096 81.2454 134.954C85.5628 134.812 88.9479 131.197 88.8061 126.88C88.7216 124.309 87.4055 122.068 85.4427 120.707C84.6326 120.145 84.0076 119.297 83.9752 118.311C83.9429 117.326 84.511 116.439 85.2825 115.825C87.1517 114.337 88.3181 112.015 88.2337 109.444C88.1485 106.849 86.8085 104.591 84.8154 103.233C83.6824 102.461 82.7334 101.32 82.6884 99.95C82.6434 98.5799 83.5154 97.3796 84.5951 96.535C86.4946 95.0491 87.6834 92.708 87.5982 90.1131C87.5138 87.542 86.1976 85.3016 84.2349 83.9397C83.4248 83.3776 82.7997 82.5299 82.7673 81.5444C82.7565 81.2141 82.8131 80.895 82.9222 80.5934C85.6276 79.3627 87.5086 76.6361 87.5086 73.4701C87.5086 71.3419 86.6586 69.4122 85.2796 68.002C84.5062 67.0513 83.5149 66.2874 82.3847 65.7843C82.1902 65.4282 82.0707 65.0364 82.057 64.62C82.0247 63.6344 82.5928 62.7474 83.3643 62.1332C85.2333 60.6455 86.3995 58.3237 86.315 55.7527C86.2298 53.1574 84.8896 50.899 82.8962 49.5411C81.7633 48.7694 80.8145 47.629 80.7695 46.259C80.7245 44.889 81.5965 43.6888 82.6763 42.8445C84.5763 41.3587 85.7654 39.0172 85.6802 36.4219C85.5958 33.8506 84.2794 31.61 82.3165 30.2482C81.5063 29.6862 80.8812 28.8385 80.8489 27.853C80.8165 26.8675 81.3846 25.9807 82.156 25.3667C84.0253 23.879 85.1917 21.5569 85.1072 18.9858C84.9655 14.6683 81.3505 11.2833 77.0331 11.425C72.7156 11.5668 69.3306 15.1818 69.4724 19.4992C69.5568 22.0703 70.873 24.3108 72.8357 25.6726C73.6459 26.2348 74.271 27.0826 74.3034 28.0682C74.3358 29.0537 73.7677 29.9407 72.9962 30.5548C71.1271 32.0425 69.9609 34.3644 70.0453 36.9354C70.1306 39.5305 71.4707 41.7888 73.4639 43.1468C74.5968 43.9186 75.5456 45.059 75.5906 46.4291C75.6356 47.7992 74.7636 48.9994 73.6838 49.8439C71.784 51.3297 70.595 53.671 70.6802 56.2662C70.7646 58.8375 72.081 61.0781 74.044 62.4399C74.8542 63.0019 75.4792 63.8496 75.5116 64.8351C75.5282 65.3412 75.3864 65.8213 75.1401 66.2518C73.7148 67.1213 72.5933 68.4327 71.96 69.9891C71.6476 70.1209 71.3133 70.1957 70.9641 70.1957C69.987 70.1957 69.3144 69.4153 68.6543 68.6494C68.4895 68.4582 68.3256 68.268 68.1579 68.091C66.7324 66.5867 64.7155 65.6485 62.4795 65.6485C62.4395 65.6485 62.3995 65.6488 62.3596 65.6494C62.3202 65.6488 62.2807 65.6485 62.2412 65.6485C60.0051 65.6485 57.9883 66.5868 56.5628 68.0911C56.3951 68.268 56.2311 68.4583 56.0664 68.6494C55.4063 69.4153 54.7338 70.1957 53.7567 70.1957C52.7707 70.1957 51.903 69.5988 51.3146 68.8076C49.8891 66.8904 47.6066 65.6484 45.0339 65.6484C42.4373 65.6484 40.1361 66.9138 38.7135 68.8615C37.905 69.9684 36.7341 70.8793 35.3635 70.8793C33.9927 70.8793 32.8218 69.9684 32.0134 68.8615C30.5908 66.9137 28.2896 65.6483 25.6929 65.6483C23.1204 65.6483 20.8379 66.8903 19.4124 68.8073C18.824 69.5985 17.9562 70.1955 16.9701 70.1955C16.078 70.1955 15.2827 69.7069 14.7036 69.0278C14.4158 68.2979 14.3516 67.4941 14.6657 66.773C15.0594 65.8689 15.9532 65.3116 16.9135 65.088C19.2402 64.5464 21.2901 62.9497 22.3172 60.5913C23.3539 58.2107 23.1127 55.5959 21.8952 53.514C21.2031 52.3306 20.8355 50.8931 21.3829 49.6362C21.9303 48.3793 23.2331 47.6693 24.5709 47.3699C26.9243 46.8431 29.0029 45.2387 30.0396 42.8582C31.0669 40.4994 30.8395 37.9107 29.6508 35.8382C29.1603 34.9829 28.9595 33.9491 29.3532 33.0452C29.732 32.1755 30.6997 31.8853 31.6361 31.6046C31.8194 31.5497 32.0014 31.4951 32.1776 31.4366C34.2127 30.761 35.9632 29.2562 36.8868 27.1355C36.9068 27.0896 36.9263 27.0436 36.9454 26.9975C36.9657 26.9532 36.9856 26.9086 37.0051 26.8637C37.9286 24.7431 37.8381 22.4365 36.9466 20.4864C36.8695 20.3179 36.7857 20.1477 36.7012 19.9765L36.7008 19.9755L36.7006 19.9753C36.2684 19.0984 35.8216 18.1922 36.2004 17.3224C36.594 16.4186 37.4876 15.8614 38.4478 15.638C40.7748 15.0965 42.8249 13.4997 43.8521 11.141C45.5769 7.18052 43.7646 2.57167 39.8041 0.846861C35.8436 -0.87795 31.2347 0.934429 29.5099 4.89492C28.4828 7.25349 28.7101 9.842 29.8984 11.9144C30.3889 12.7698 30.5897 13.8037 30.196 14.7078C29.8172 15.5776 28.8494 15.8678 27.913 16.1487L27.9129 16.1487C27.7296 16.2036 27.5475 16.2583 27.3712 16.3168C25.3365 16.9926 23.5863 18.4972 22.6629 20.6176C22.6429 20.6635 22.6234 20.7095 22.6043 20.7556C22.5841 20.7999 22.5642 20.8445 22.5446 20.8894C21.6212 23.0096 21.7116 25.3157 22.6027 27.2656C22.6799 27.4347 22.764 27.6054 22.8487 27.7772C23.281 28.6542 23.7277 29.5605 23.3488 30.4304C22.9551 31.3345 22.0614 31.8918 21.101 32.1154C18.7744 32.657 16.7245 34.2537 15.6974 36.6121C14.6606 38.9929 14.9019 41.6079 16.1197 43.6899C16.8118 44.8732 17.1795 46.3106 16.6321 47.5674C16.0848 48.8242 14.7821 49.5341 13.4443 49.8334C11.0906 50.36 9.01175 51.9645 7.97496 54.3452C6.94774 56.7039 7.17512 59.2926 8.36369 61.365C8.85422 62.2203 9.055 63.2542 8.66131 64.1582C8.26763 65.0622 7.37394 65.6194 6.41364 65.8429C4.08677 66.3844 2.03667 67.9811 1.00946 70.3398ZM7.92305 68.0318C5.05994 68.1935 2.78808 70.5665 2.78808 73.4701C2.78808 76.4784 5.22683 78.9172 8.23518 78.9172C8.37641 78.9172 8.51638 78.9118 8.6549 78.9012C10.5757 78.7299 12.3456 77.5417 13.1698 75.6491C14.371 72.891 13.1088 69.6813 10.3507 68.4802C9.55929 68.1355 8.7307 67.9937 7.92305 68.0318ZM7.30848 75.4666C6.20813 74.9874 5.70459 73.7069 6.1838 72.6066C6.524 71.8254 7.26803 71.345 8.06476 71.3035C8.12101 71.2991 8.17785 71.2969 8.23522 71.2969C9.43539 71.2969 10.4083 72.2699 10.4083 73.47C10.4083 74.6242 9.50861 75.5682 8.3723 75.6389C8.0203 75.6711 7.65544 75.6177 7.30848 75.4666ZM10.0387 55.554C8.83753 58.3121 10.0997 61.5218 12.8578 62.723C15.616 63.9242 18.8256 62.662 20.0268 59.9039C21.228 57.1457 19.9658 53.9361 17.2077 52.7349C14.4495 51.5337 11.2399 52.7959 10.0387 55.554ZM13.0403 56.8611C12.5611 57.9615 13.0647 59.242 14.165 59.7212C15.2654 60.2004 16.5459 59.6968 17.0251 58.5965C17.5043 57.4961 17.0007 56.2156 15.9004 55.7364C14.8 55.2572 13.5195 55.7608 13.0403 56.8611ZM17.8696 37.5719C16.6684 40.33 17.9305 43.5397 20.6887 44.7409C23.4468 45.9421 26.6565 44.6799 27.8577 41.9218C29.0588 39.1636 27.7967 35.954 25.0385 34.7528C22.2804 33.5516 19.0707 34.8138 17.8696 37.5719ZM20.8716 38.8792C20.3923 39.9795 20.8959 41.26 21.9962 41.7392C23.0966 42.2184 24.3771 41.7149 24.8563 40.6146C25.3355 39.5142 24.832 38.2337 23.7316 37.7545C22.6313 37.2753 21.3508 37.7788 20.8716 38.8792ZM27.5462 28.9956C24.788 27.7944 23.5259 24.5848 24.727 21.8266C24.739 21.7991 24.7512 21.7717 24.7636 21.7444C25.9997 19.0593 29.1627 17.8442 31.8857 19.0301C34.6438 20.2313 35.906 23.4409 34.7048 26.1991C34.6928 26.2266 34.6806 26.254 34.6682 26.2813C33.4321 28.9664 30.2691 30.1815 27.5462 28.9956ZM30.5886 22.0091C29.4954 21.533 28.2243 22.0269 27.738 23.1125L27.7276 23.1354L27.7182 23.1566C27.239 24.257 27.7425 25.5374 28.8429 26.0166C29.9359 26.4927 31.2068 25.9989 31.6933 24.9137C31.7001 24.899 31.7068 24.8841 31.7133 24.8691C32.1925 23.7688 31.689 22.4883 30.5886 22.0091ZM34.3928 13.2729C31.6347 12.0717 30.3725 8.86206 31.5737 6.10393C32.7749 3.34579 35.9845 2.08363 38.7426 3.28481C41.5008 4.48599 42.763 7.69565 41.5618 10.4538C40.3606 13.2119 37.1509 14.4741 34.3928 13.2729ZM35.6999 10.2711C34.5995 9.79188 34.096 8.51139 34.5752 7.41104C35.0544 6.31068 36.3349 5.80715 37.4353 6.28635C38.5356 6.76556 39.0391 8.04605 38.5599 9.1464C38.0807 10.2468 36.8002 10.7503 35.6999 10.2711ZM79.3959 78.6621C81.2513 78.6012 82.8595 77.6192 83.7958 76.1696C84.284 75.3208 84.5494 74.3298 84.5149 73.2791C84.4223 70.4588 82.2015 68.2097 79.4449 68.0233C79.4309 68.0232 79.4169 68.0231 79.4029 68.0231C76.3946 68.0231 73.9558 70.4619 73.9558 73.4702C73.9558 74.6225 74.3136 75.6913 74.9242 76.5714C75.959 77.8939 77.5891 78.7215 79.3959 78.6621ZM79.142 75.6298C77.9425 75.6692 76.9381 74.7287 76.8987 73.5292C76.8826 73.0373 77.0312 72.5783 77.2949 72.2051C77.6473 71.5374 78.3381 71.0725 79.1467 71.0459C79.9493 71.0196 80.6646 71.432 81.0619 72.0671C81.3822 72.4457 81.5754 72.9354 81.5754 73.4702C81.5754 74.6704 80.6025 75.6433 79.4023 75.6433C79.3186 75.6433 79.2361 75.6386 79.1549 75.6294C79.1506 75.6295 79.1463 75.6297 79.142 75.6298ZM73.0635 56.4723C73.1622 59.479 75.6797 61.8364 78.6864 61.7376C81.6931 61.6389 84.0505 59.1214 83.9518 56.1147C83.853 53.108 81.3356 50.7506 78.3288 50.8493C75.3221 50.9481 72.9647 53.4655 73.0635 56.4723ZM76.3354 56.3648C76.3748 57.5643 77.3792 58.5048 78.5787 58.4654C79.7782 58.426 80.7187 57.4216 80.6793 56.2221C80.6399 55.0226 79.6356 54.0821 78.4361 54.1215C77.2365 54.1609 76.2961 55.1652 76.3354 56.3648ZM78.0416 42.1352C75.0348 42.234 72.5174 39.8766 72.4186 36.8699C72.3199 33.8631 74.6773 31.3457 77.684 31.2469C80.6907 31.1482 83.2082 33.5056 83.3069 36.5123C83.4057 39.519 81.0483 42.0365 78.0416 42.1352ZM77.9342 38.8629C76.7346 38.9023 75.7303 37.9618 75.6909 36.7623C75.6515 35.5627 76.592 34.5584 77.7915 34.519C78.9911 34.4796 79.9954 35.4201 80.0348 36.6196C80.0742 37.8191 79.1337 38.8235 77.9342 38.8629ZM71.8554 19.7054C71.9541 22.7121 74.4716 25.0695 77.4783 24.9708C80.4851 24.872 82.8425 22.3545 82.7437 19.3478C82.645 16.3411 80.1275 13.9837 77.1208 14.0824C74.114 14.1812 71.7566 16.6987 71.8554 19.7054ZM75.1275 19.5979C75.1669 20.7974 76.1713 21.7379 77.3708 21.6985C78.5703 21.6591 79.5108 20.6548 79.4714 19.4552C79.432 18.2557 78.4277 17.3152 77.2281 17.3546C76.0286 17.394 75.0881 18.3984 75.1275 19.5979ZM75.545 127.328C75.6437 130.335 78.1612 132.692 81.1679 132.593C84.1747 132.495 86.5321 129.977 86.4333 126.971C86.3346 123.964 83.8171 121.606 80.8104 121.705C77.8036 121.804 75.4463 124.321 75.545 127.328ZM78.8171 127.221C78.8565 128.42 79.8608 129.361 81.0603 129.321C82.2599 129.282 83.2003 128.277 83.161 127.078C83.1216 125.878 82.1172 124.938 80.9177 124.977C79.7182 125.017 78.7777 126.021 78.8171 127.221ZM80.6043 115.429C77.5976 115.528 75.0801 113.17 74.9814 110.164C74.8826 107.157 77.24 104.639 80.2467 104.541C83.2535 104.442 85.7709 106.799 85.8697 109.806C85.9684 112.813 83.611 115.33 80.6043 115.429ZM80.497 112.157C79.2975 112.196 78.2932 111.256 78.2538 110.056C78.2144 108.857 79.1549 107.852 80.3544 107.813C81.5539 107.773 82.5583 108.714 82.5977 109.913C82.6371 111.113 81.6966 112.117 80.497 112.157ZM74.3366 90.5611C74.4354 93.5678 76.9528 95.9252 79.9596 95.8264C82.9663 95.7277 85.3237 93.2102 85.2249 90.2035C85.1262 87.1968 82.6087 84.8394 79.602 84.9381C76.5953 85.0368 74.2379 87.5543 74.3366 90.5611ZM77.6089 90.4535C77.6483 91.653 78.6526 92.5935 79.8521 92.5541C81.0517 92.5147 81.9921 91.5104 81.9527 90.3109C81.9133 89.1113 80.909 88.1709 79.7095 88.2102C78.5099 88.2496 77.5695 89.254 77.6089 90.4535ZM56.7819 73.4702C56.7819 70.4663 59.2136 68.0302 62.2159 68.0231C65.2147 68.0343 67.6423 70.4687 67.6423 73.4702C67.6423 76.4742 65.2106 78.9102 62.2082 78.9173C59.2094 78.9061 56.7819 76.4716 56.7819 73.4702ZM62.2288 71.2971L62.2136 71.2971L62.1953 71.2971C60.9951 71.2971 60.0222 72.27 60.0222 73.4702C60.0222 74.6703 60.9951 75.6433 62.1953 75.6433L62.2105 75.6432L62.2288 75.6433C63.429 75.6433 64.4019 74.6704 64.4019 73.4702C64.4019 72.27 63.429 71.2971 62.2288 71.2971ZM45.0218 68.0231C42.0134 68.0231 39.5747 70.4618 39.5747 73.4702C39.5747 76.4785 42.0134 78.9173 45.0218 78.9173C48.0301 78.9173 50.4689 76.4785 50.4689 73.4702C50.4689 70.4618 48.0301 68.0231 45.0218 68.0231ZM45.0223 71.2971C43.8221 71.2971 42.8492 72.27 42.8492 73.4702C42.8492 74.6703 43.8221 75.6433 45.0223 75.6433C46.2225 75.6433 47.1954 74.6703 47.1954 73.4702C47.1954 72.27 46.2225 71.2971 45.0223 71.2971ZM25.4091 68.0231C22.4007 68.0231 19.962 70.4618 19.962 73.4702C19.962 76.4785 22.4007 78.9173 25.4091 78.9173C28.4174 78.9173 30.8562 76.4785 30.8562 73.4702C30.8562 70.4618 28.4174 68.0231 25.4091 68.0231ZM25.4092 71.2971C24.209 71.2971 23.2361 72.27 23.2361 73.4702C23.2361 74.6703 24.209 75.6433 25.4092 75.6433C26.6094 75.6433 27.5823 74.6703 27.5823 73.4702C27.5823 72.27 26.6094 71.2971 25.4092 71.2971Z" fill="#271C05"/>
</svg>
