<svg width="18" height="19" viewBox="0 0 18 19" fill="none" xmlns="http://www.w3.org/2000/svg">
<g clip-path="url(#clip0_731_798)">
<path d="M2.28784 7.58348C2.25595 7.48827 2.24352 7.38763 2.25126 7.28752C2.259 7.18742 2.28676 7.08988 2.33289 7.00071C2.37903 6.91153 2.4426 6.83252 2.51984 6.76837C2.59708 6.70422 2.68642 6.65624 2.78255 6.62726C2.87868 6.59828 2.97965 6.58889 3.07948 6.59966C3.1793 6.61044 3.27595 6.64114 3.36369 6.68996C3.45143 6.73878 3.52847 6.80472 3.59025 6.88387C3.65202 6.96301 3.69728 7.05376 3.72334 7.15073C5.28784 12.3902 12.7098 12.391 14.2758 7.15373C14.3039 7.05927 14.3503 6.97127 14.4124 6.89475C14.4745 6.81823 14.551 6.75469 14.6376 6.70775C14.7243 6.66081 14.8193 6.63139 14.9173 6.62118C15.0153 6.61097 15.1144 6.62016 15.2088 6.64823C15.3033 6.6763 15.3913 6.7227 15.4678 6.78478C15.5443 6.84686 15.6079 6.9234 15.6548 7.01004C15.7018 7.09667 15.7312 7.19171 15.7414 7.28971C15.7516 7.38772 15.7424 7.48677 15.7143 7.58123C15.4415 8.51962 14.9786 9.39191 14.3546 10.144L15.3108 11.101C15.4475 11.2424 15.523 11.4319 15.5213 11.6285C15.5196 11.8252 15.4408 12.0133 15.3017 12.1523C15.1626 12.2914 14.9745 12.3703 14.7779 12.372C14.5812 12.3737 14.3918 12.2981 14.2503 12.1615L13.2671 11.1782C12.7364 11.5784 12.1503 11.899 11.5271 12.13L11.7948 13.1312C11.8234 13.2273 11.8324 13.3281 11.8214 13.4276C11.8104 13.5272 11.7795 13.6236 11.7306 13.711C11.6817 13.7985 11.6158 13.8753 11.5367 13.9368C11.4576 13.9984 11.3671 14.0435 11.2703 14.0694C11.1735 14.0954 11.0725 14.1017 10.9733 14.088C10.874 14.0742 10.7785 14.0408 10.6924 13.9895C10.6063 13.9383 10.5313 13.8703 10.4719 13.7896C10.4125 13.7089 10.3699 13.6172 10.3466 13.5197L10.0736 12.502C9.36334 12.607 8.63734 12.607 7.92709 12.502L7.65409 13.5197C7.63075 13.6172 7.58812 13.7089 7.52873 13.7896C7.46933 13.8703 7.39437 13.9383 7.30826 13.9895C7.22216 14.0408 7.12667 14.0742 7.02741 14.088C6.92816 14.1017 6.82717 14.0954 6.73039 14.0694C6.63362 14.0435 6.54303 13.9984 6.46397 13.9368C6.38491 13.8753 6.31898 13.7985 6.27009 13.711C6.22119 13.6236 6.19031 13.5272 6.17928 13.4276C6.16824 13.3281 6.17727 13.2273 6.20584 13.1312L6.47359 12.13C5.85037 11.8987 5.26421 11.5779 4.73358 11.1775L3.75109 12.1615C3.61045 12.3023 3.41964 12.3815 3.22062 12.3816C3.02159 12.3818 2.83066 12.3029 2.68984 12.1622C2.54901 12.0216 2.46981 11.8308 2.46967 11.6318C2.46953 11.4327 2.54845 11.2418 2.68909 11.101L3.64534 10.1447C3.05734 9.44273 2.58784 8.58923 2.28634 7.58423L2.28784 7.58348Z" fill="white"/>
</g>
<defs>
<clipPath id="clip0_731_798">
<rect width="18" height="18" fill="white" transform="translate(0 0.600952)"/>
</clipPath>
</defs>
</svg>
