<svg width="16" height="17" viewBox="0 0 16 17" fill="none" xmlns="http://www.w3.org/2000/svg">
<g clip-path="url(#clip0_951_90)">
<path d="M11 2.25V3.5H13.25C13.4489 3.5 13.6397 3.57902 13.7803 3.71967C13.921 3.86032 14 4.05109 14 4.25C14 4.44891 13.921 4.63968 13.7803 4.78033C13.6397 4.92098 13.4489 5 13.25 5H2.75C2.55109 5 2.36032 4.92098 2.21967 4.78033C2.07902 4.63968 2 4.44891 2 4.25C2 4.05109 2.07902 3.86032 2.21967 3.71967C2.36032 3.57902 2.55109 3.5 2.75 3.5H5V2.25C5 1.284 5.784 0.5 6.75 0.5H9.25C10.216 0.5 11 1.284 11 2.25ZM4.496 7.175L5.156 13.775C5.1622 13.8367 5.19112 13.8939 5.23714 13.9355C5.28315 13.9771 5.34298 14.0001 5.405 14H10.595C10.657 14.0001 10.7168 13.9771 10.7629 13.9355C10.8089 13.8939 10.8378 13.8367 10.844 13.775L11.504 7.175C11.5288 6.98127 11.6282 6.80486 11.781 6.68328C11.9339 6.56169 12.1281 6.50453 12.3225 6.52394C12.5168 6.54334 12.6959 6.63779 12.8217 6.7872C12.9475 6.93661 13.01 7.1292 12.996 7.324L12.336 13.924C12.2929 14.3558 12.0908 14.7562 11.7691 15.0474C11.4474 15.3386 11.0289 15.4999 10.595 15.5H5.405C4.97121 15.4999 4.5529 15.3388 4.23121 15.0478C3.90952 14.7567 3.70738 14.3566 3.664 13.925L3.004 7.325C2.99148 7.2257 2.99895 7.1249 3.02599 7.02853C3.05303 6.93217 3.09908 6.84219 3.16144 6.7639C3.22379 6.68561 3.30118 6.62059 3.38905 6.57268C3.47692 6.52476 3.5735 6.49492 3.67308 6.48491C3.77266 6.4749 3.87325 6.48492 3.9689 6.51438C4.06455 6.54385 4.15333 6.59216 4.23002 6.65647C4.30671 6.72078 4.36975 6.79979 4.41543 6.88884C4.46111 6.9779 4.48851 7.07519 4.496 7.175ZM6.5 2.25V3.5H9.5V2.25C9.5 2.1837 9.47366 2.12011 9.42678 2.07322C9.37989 2.02634 9.3163 2 9.25 2H6.75C6.6837 2 6.62011 2.02634 6.57322 2.07322C6.52634 2.12011 6.5 2.1837 6.5 2.25Z" fill="black"/>
</g>
<defs>
<clipPath id="clip0_951_90">
<rect width="16" height="16" fill="white" transform="translate(0 0.5)"/>
</clipPath>
</defs>
</svg>
