<svg width="81" height="81" viewBox="0 0 81 81" fill="none" xmlns="http://www.w3.org/2000/svg">
<path fill-rule="evenodd" clip-rule="evenodd" d="M40.5 0.5L42.4678 2.95153L44.6811 0.719124L46.3819 3.36292L48.8165 1.3741L50.2316 4.18119L52.8607 2.45774L53.9746 5.39738L56.7695 3.95818L57.57 6.99815L60.5 5.85898L60.9784 8.96599L64.0114 8.13932L64.1624 11.2793L67.2652 10.7742L67.0872 13.9128L70.2258 13.7348L69.7207 16.8376L72.8607 16.9886L72.034 20.0216L75.141 20.5L74.0018 23.43L77.0418 24.2305L75.6026 27.0254L78.5423 28.1393L76.8188 30.7684L79.6259 32.1835L77.6371 34.6181L80.2809 36.3189L78.0485 38.5322L80.5 40.5L78.0485 42.4678L80.2809 44.6811L77.6371 46.3819L79.6259 48.8165L76.8188 50.2316L78.5423 52.8607L75.6026 53.9746L77.0418 56.7695L74.0018 57.57L75.141 60.5L72.034 60.9784L72.8607 64.0114L69.7207 64.1624L70.2258 67.2652L67.0872 67.0872L67.2652 70.2258L64.1624 69.7207L64.0114 72.8607L60.9784 72.034L60.5 75.141L57.57 74.0018L56.7695 77.0418L53.9746 75.6026L52.8607 78.5423L50.2316 76.8188L48.8165 79.6259L46.3819 77.6371L44.6811 80.2809L42.4678 78.0485L40.5 80.5L38.5322 78.0485L36.3189 80.2809L34.6181 77.6371L32.1835 79.6259L30.7684 76.8188L28.1393 78.5423L27.0254 75.6026L24.2305 77.0418L23.43 74.0018L20.5 75.141L20.0216 72.034L16.9886 72.8607L16.8376 69.7207L13.7348 70.2258L13.9128 67.0872L10.7742 67.2652L11.2793 64.1624L8.13932 64.0114L8.96599 60.9784L5.85898 60.5L6.99815 57.57L3.95818 56.7695L5.39738 53.9746L2.45774 52.8607L4.18119 50.2316L1.3741 48.8165L3.36292 46.3819L0.719124 44.6811L2.95153 42.4678L0.5 40.5L2.95153 38.5322L0.719124 36.3189L3.36292 34.6181L1.3741 32.1835L4.18119 30.7684L2.45774 28.1393L5.39738 27.0254L3.95818 24.2305L6.99815 23.43L5.85898 20.5L8.96599 20.0216L8.13932 16.9886L11.2793 16.8376L10.7742 13.7348L13.9128 13.9128L13.7348 10.7742L16.8376 11.2793L16.9886 8.13932L20.0216 8.96599L20.5 5.85898L23.43 6.99815L24.2305 3.95818L26.9344 5.35052C26.973 5.34379 27.0116 5.3376 27.0502 5.33193L28.1393 2.45774L30.7684 4.18119L32.1835 1.3741L34.6181 3.36292L36.3189 0.719124L38.5322 2.95153L40.5 0.5ZM24.0726 12.3675C15.4721 17.4006 9.38622 26.2649 8.15702 36.6186H16.0031C24.6584 36.6186 30.525 27.8091 27.1879 19.8229L24.0726 12.3675ZM8.18932 44.6432C9.44852 54.5605 15.1672 63.0863 23.2722 68.1473C23.2223 67.3547 23.3715 66.5407 23.7416 65.7817L26.2514 60.6348C29.8529 53.2491 24.4748 44.6432 16.2578 44.6432H8.18932ZM30.8509 71.6182C33.8999 72.5626 37.1405 73.0711 40.4999 73.0711C47.5338 73.0711 54.047 70.8415 59.3712 67.0505C59.129 66.8695 58.9016 66.6618 58.6932 66.4278L53.0114 60.0482C47.7473 54.1374 38.1141 55.7655 35.0847 63.0778L32.3568 69.6624C32.0218 70.4711 31.4933 71.1314 30.8509 71.6182ZM65.9062 60.8836C70.3892 55.3032 73.0716 48.2146 73.0716 40.4994C73.0716 35.6811 72.0254 31.1071 70.1477 26.9922C70.0332 27.0743 69.914 27.1519 69.79 27.2245L61.2294 32.2357C53.7325 36.6243 52.351 46.8874 58.4205 53.1022L65.361 60.2089C65.5677 60.4206 65.7493 60.6466 65.9062 60.8836ZM65.2798 19.359C65.2057 19.4007 65.1324 19.4447 65.0598 19.491L56.6442 24.8646C49.0155 29.7358 38.8375 26.3979 35.575 17.9551L32.1206 9.01568C34.7943 8.30594 37.6029 7.92773 40.4999 7.92773C50.4207 7.92773 59.3056 12.3631 65.2798 19.359Z" fill="#FFA800"/>
</svg>
