<svg width="35" height="19" viewBox="0 0 35 19" fill="none" xmlns="http://www.w3.org/2000/svg">
<g clip-path="url(#clip0_712_711)">
<path fill-rule="evenodd" clip-rule="evenodd" d="M14.7554 2.64803V1.35339H11.2453V8.31485H4.36605V1.35339H0.844238V18.4459H4.36605V11.0619H11.2453V18.4459H14.7554V17.1315L14.6705 17.1455L14.7134 16.3794L13.9566 16.4229L14.0784 15.6655L13.3212 15.6286L13.5205 14.8883L12.7713 14.7715L13.046 14.0564L12.3129 13.861L12.66 13.1788L11.9511 12.9069L12.3667 12.2651L11.6898 11.9197L12.1694 11.3255L11.7646 11.0619L11.5318 10.9103L12.0702 10.3701L11.479 9.88977L12.0702 9.40944L11.5318 8.8692L12.1694 8.45405L12.057 8.31485L11.6898 7.85981L12.3667 7.51439L11.9511 6.87266L12.66 6.60076L12.3129 5.91857L13.046 5.72316L12.7713 5.00799L13.5205 4.89121L13.3212 4.1509L14.0784 4.11403L13.9566 3.35668L14.7134 3.40013L14.6705 2.63404L14.7554 2.64803Z" fill="#FFA800"/>
<path fill-rule="evenodd" clip-rule="evenodd" d="M19.2495 9.94215C19.2495 9.05779 19.9664 8.34088 20.8508 8.34088H32.5545C33.4389 8.34088 34.1558 9.05779 34.1558 9.94215C34.1558 10.8265 33.4389 11.5434 32.5545 11.5434H20.8508C19.9664 11.5434 19.2495 10.8265 19.2495 9.94215ZM33.3622 9.94215C33.3622 10.386 33.0025 10.7457 32.5586 10.7457C32.1148 10.7457 31.755 10.386 31.755 9.94215C31.755 9.49833 32.1148 9.13855 32.5586 9.13855C33.0025 9.13855 33.3622 9.49833 33.3622 9.94215ZM21.3243 10.7457C21.7681 10.7457 22.1279 10.386 22.1279 9.94215C22.1279 9.49833 21.7681 9.13855 21.3243 9.13855C20.8805 9.13855 20.5207 9.49833 20.5207 9.94215C20.5207 10.386 20.8805 10.7457 21.3243 10.7457Z" fill="#FFA800"/>
<path fill-rule="evenodd" clip-rule="evenodd" d="M21.4398 1.07651L21.8739 1.61726L22.3621 1.12484L22.7373 1.70801L23.2743 1.26931L23.5864 1.8885L24.1664 1.50834L24.4121 2.15676L25.0285 1.83931L25.2051 2.50986L25.8514 2.25859L25.957 2.94392L26.626 2.76158L26.6593 3.4542L27.3437 3.34278L27.3127 3.88991L26.3551 4.65878C25.0701 3.45329 23.3416 2.71499 21.4406 2.71499C20.8013 2.71499 20.1814 2.7985 19.5914 2.9552L20.353 4.92615C20.8728 6.27116 22.1882 7.0288 23.5128 6.94116L22.2178 7.98104H21.4204C20.3545 7.98104 19.4904 8.84517 19.4904 9.91113C19.4904 10.9771 20.3545 11.8412 21.4204 11.8412H24.8166C24.9536 12.1417 25.1448 12.4255 25.3922 12.6789L26.9232 14.2464C26.9691 14.2935 27.0095 14.3438 27.0442 14.3965C27.6424 13.6521 28.0952 12.786 28.3598 11.8412H29.8577L29.451 12.0462L29.8312 12.6262L29.1827 12.8719L29.5002 13.4884L28.8296 13.6649L29.0809 14.3112L28.3956 14.4168L28.5779 15.0858L27.8853 15.1191L27.9967 15.8035L27.3044 15.7642L27.3437 16.4565L26.6593 16.3451L26.626 17.0377L25.957 16.8554L25.8514 17.5407L25.2051 17.2895L25.0285 17.96L24.4121 17.6426L24.1664 18.291L23.5864 17.9108L23.2743 18.53L22.7373 18.0913L22.3621 18.6745L21.8739 18.1821L21.4398 18.7228L21.0058 18.1821L20.5176 18.6745L20.1424 18.0913L19.6054 18.53L19.2933 17.9108L18.7133 18.291L18.4676 17.6426L17.8512 17.96L17.6746 17.2895L17.0283 17.5407L16.9227 16.8554L16.2537 17.0377L16.2204 16.3451L15.536 16.4565L15.5753 15.7642L14.883 15.8035L14.9944 15.1191L14.3018 15.0858L14.4841 14.4168L13.7988 14.3112L14.0501 13.6649L13.3795 13.4884L13.697 12.8719L13.0485 12.6262L13.4287 12.0462L12.8095 11.7341L13.2482 11.1971L12.665 10.8219L13.1575 10.3337L12.6167 9.89966L13.1575 9.4656L12.665 8.97739L13.2482 8.60223L12.8095 8.06522L13.4287 7.75307L13.0485 7.17315L13.697 6.92744L13.3795 6.31096L14.0501 6.13437L13.7988 5.48808L14.4841 5.38255L14.3018 4.71354L14.9944 4.68022L14.883 3.99582L15.5753 4.03508L15.536 3.34278L16.2204 3.4542L16.2537 2.76158L16.9227 2.94392L17.0283 2.25859L17.6746 2.50986L17.8512 1.83931L18.4466 2.14593C18.4555 2.14437 18.4644 2.14294 18.4734 2.14163L18.7133 1.50834L19.2933 1.8885L19.6054 1.26931L20.1424 1.70801L20.5176 1.12484L21.0058 1.61726L21.4398 1.07651ZM17.8163 3.69477C15.9198 4.80492 14.5778 6.75971 14.3065 9.04292H16.0359C17.945 9.04292 19.2391 7.09972 18.503 5.33815L17.8163 3.69477ZM14.3135 10.813C14.591 13.0003 15.852 14.8808 17.6393 15.9974C17.6283 15.8226 17.6612 15.6431 17.7428 15.4757L18.2964 14.3404C19.0908 12.7113 17.9046 10.813 16.0921 10.813H14.3135ZM19.3107 16.7633C19.9837 16.9719 20.699 17.0842 21.4406 17.0842C22.992 17.0842 24.4286 16.5925 25.603 15.7563C25.5492 15.7162 25.4987 15.6702 25.4524 15.6182L24.1991 14.211C23.038 12.9072 20.9131 13.2663 20.2449 14.8793L19.6432 16.3317C19.5692 16.5102 19.4525 16.6559 19.3107 16.7633ZM19.7073 4.62492C19.7073 4.85401 19.5216 5.03973 19.2925 5.03973C19.0634 5.03973 18.8777 4.85401 18.8777 4.62492C18.8777 4.39582 19.0634 4.2101 19.2925 4.2101C19.5216 4.2101 19.7073 4.39582 19.7073 4.62492ZM16.3203 10.3144C16.5494 10.3144 16.7351 10.1287 16.7351 9.89962C16.7351 9.67052 16.5494 9.4848 16.3203 9.4848C16.0912 9.4848 15.9054 9.67052 15.9054 9.89962C15.9054 10.1287 16.0912 10.3144 16.3203 10.3144ZM25.6568 13.9437C25.6568 14.1728 25.4711 14.3585 25.242 14.3585C25.0129 14.3585 24.8272 14.1728 24.8272 13.9437C24.8272 13.7146 25.0129 13.5289 25.242 13.5289C25.4711 13.5289 25.6568 13.7146 25.6568 13.9437ZM19.5999 14.7734C19.5999 15.0025 19.4142 15.1882 19.1851 15.1882C18.956 15.1882 18.7703 15.0025 18.7703 14.7734C18.7703 14.5443 18.956 14.3586 19.1851 14.3586C19.4142 14.3586 19.5999 14.5443 19.5999 14.7734Z" fill="#FFA800"/>
</g>
<defs>
<clipPath id="clip0_712_711">
<rect width="35" height="18" fill="white" transform="translate(0 0.899658)"/>
</clipPath>
</defs>
</svg>
