<svg width="25" height="25" viewBox="0 0 25 25" fill="none" xmlns="http://www.w3.org/2000/svg">
<path d="M3.56982 12.5C3.56982 12.7984 3.68835 13.0845 3.89933 13.2955C4.11031 13.5065 4.39646 13.625 4.69482 13.625H11.8198V20.75C11.8198 21.0484 11.9384 21.3345 12.1493 21.5455C12.3603 21.7565 12.6465 21.875 12.9448 21.875C13.2432 21.875 13.5293 21.7565 13.7403 21.5455C13.9513 21.3345 14.0698 21.0484 14.0698 20.75V13.625H21.1948C21.4932 13.625 21.7793 13.5065 21.9903 13.2955C22.2013 13.0845 22.3198 12.7984 22.3198 12.5C22.3198 12.2016 22.2013 11.9155 21.9903 11.7045C21.7793 11.4935 21.4932 11.375 21.1948 11.375H14.0698V4.25C14.0698 3.95163 13.9513 3.66548 13.7403 3.4545C13.5293 3.24353 13.2432 3.125 12.9448 3.125C12.6465 3.125 12.3603 3.24353 12.1493 3.4545C11.9384 3.66548 11.8198 3.95163 11.8198 4.25V11.375H4.69482C4.39646 11.375 4.11031 11.4935 3.89933 11.7045C3.68835 11.9155 3.56982 12.2016 3.56982 12.5Z" fill="black"/>
</svg>
